<?xml version="1.0" encoding="UTF-8"?>
<svg width="147px" height="84px" viewBox="0 0 147 84" version="1.1" xmlns="http://www.w3.org/2000/svg" xmlns:xlink="http://www.w3.org/1999/xlink">
    <title>编组 9</title>
    <defs>
        <rect id="path-1" x="120" y="170" width="1040" height="538" rx="8"></rect>
        <filter x="-0.9%" y="-1.5%" width="101.7%" height="103.3%" filterUnits="objectBoundingBox" id="filter-2">
            <feOffset dx="0" dy="1" in="SourceAlpha" result="shadowOffsetOuter1"></feOffset>
            <feGaussianBlur stdDeviation="1" in="shadowOffsetOuter1" result="shadowBlurOuter1"></feGaussianBlur>
            <feColorMatrix values="0 0 0 0 0.0745098039   0 0 0 0 0.125490196   0 0 0 0 0.223529412  0 0 0 0.03 0" type="matrix" in="shadowBlurOuter1" result="shadowMatrixOuter1"></feColorMatrix>
            <feMorphology radius="0.5" operator="erode" in="SourceAlpha" result="shadowSpreadOuter2"></feMorphology>
            <feOffset dx="0" dy="1" in="shadowSpreadOuter2" result="shadowOffsetOuter2"></feOffset>
            <feGaussianBlur stdDeviation="3" in="shadowOffsetOuter2" result="shadowBlurOuter2"></feGaussianBlur>
            <feColorMatrix values="0 0 0 0 0.0745098039   0 0 0 0 0.125490196   0 0 0 0 0.223529412  0 0 0 0.02 0" type="matrix" in="shadowBlurOuter2" result="shadowMatrixOuter2"></feColorMatrix>
            <feOffset dx="0" dy="2" in="SourceAlpha" result="shadowOffsetOuter3"></feOffset>
            <feGaussianBlur stdDeviation="2" in="shadowOffsetOuter3" result="shadowBlurOuter3"></feGaussianBlur>
            <feColorMatrix values="0 0 0 0 0.0745098039   0 0 0 0 0.125490196   0 0 0 0 0.223529412  0 0 0 0.02 0" type="matrix" in="shadowBlurOuter3" result="shadowMatrixOuter3"></feColorMatrix>
            <feMerge>
                <feMergeNode in="shadowMatrixOuter1"></feMergeNode>
                <feMergeNode in="shadowMatrixOuter2"></feMergeNode>
                <feMergeNode in="shadowMatrixOuter3"></feMergeNode>
            </feMerge>
        </filter>
        <linearGradient x1="10.7501534%" y1="42.6345475%" x2="58.7261817%" y2="63.8548261%" id="linearGradient-3">
            <stop stop-color="#16B983" offset="0%"></stop>
            <stop stop-color="#008F7E" offset="100%"></stop>
        </linearGradient>
        <linearGradient x1="9.55622882%" y1="39.175854%" x2="52.752524%" y2="59.5795126%" id="linearGradient-4">
            <stop stop-color="#FFFFFF" offset="0%"></stop>
            <stop stop-color="#A3B8DA" offset="100%"></stop>
        </linearGradient>
        <linearGradient x1="78.7683984%" y1="54.1395834%" x2="26.0509735%" y2="50%" id="linearGradient-5">
            <stop stop-color="#97D8D6" offset="0%"></stop>
            <stop stop-color="#8ED8CD" offset="100%"></stop>
        </linearGradient>
        <linearGradient x1="38.9459491%" y1="100%" x2="50%" y2="9.63783111%" id="linearGradient-6">
            <stop stop-color="#BDFFFD" offset="0%"></stop>
            <stop stop-color="#B6EDE4" offset="100%"></stop>
        </linearGradient>
        <linearGradient x1="38.689562%" y1="100%" x2="50%" y2="9.63783111%" id="linearGradient-7">
            <stop stop-color="#BDFFFD" offset="0%"></stop>
            <stop stop-color="#B6EDE4" offset="100%"></stop>
        </linearGradient>
        <linearGradient x1="78.7683984%" y1="50.465072%" x2="26.0509735%" y2="50%" id="linearGradient-8">
            <stop stop-color="#97D8D6" offset="0%"></stop>
            <stop stop-color="#8ED8CD" offset="100%"></stop>
        </linearGradient>
        <linearGradient x1="38.1713781%" y1="100%" x2="50%" y2="9.63783111%" id="linearGradient-9">
            <stop stop-color="#BDFFFD" offset="0%"></stop>
            <stop stop-color="#B6EDE4" offset="100%"></stop>
        </linearGradient>
        <linearGradient x1="18.2793097%" y1="41.6469193%" x2="63.8208323%" y2="63.8548261%" id="linearGradient-10">
            <stop stop-color="#F1AE00" offset="0%"></stop>
            <stop stop-color="#FF8510" offset="100%"></stop>
        </linearGradient>
        <linearGradient x1="100%" y1="50%" x2="0%" y2="50%" id="linearGradient-11">
            <stop stop-color="#FFE8BF" offset="0%"></stop>
            <stop stop-color="#FFD585" offset="100%"></stop>
        </linearGradient>
        <linearGradient x1="50%" y1="100%" x2="50%" y2="6.16297582e-31%" id="linearGradient-12">
            <stop stop-color="#F6EAD3" offset="0%"></stop>
            <stop stop-color="#FEE1BB" offset="100%"></stop>
        </linearGradient>
        <linearGradient x1="51.7804998%" y1="57.3018791%" x2="51.7804998%" y2="96.7279905%" id="linearGradient-13">
            <stop stop-color="#0A2250" offset="0.0327797203%"></stop>
            <stop stop-color="#327792" offset="43.2473776%"></stop>
            <stop stop-color="#73FFFB" offset="100%"></stop>
        </linearGradient>
        <linearGradient x1="44.7246498%" y1="7.03810225%" x2="55.1975357%" y2="97.5559728%" id="linearGradient-14">
            <stop stop-color="#002BFF" offset="0%"></stop>
            <stop stop-color="#0080FF" offset="100%"></stop>
        </linearGradient>
        <linearGradient x1="9.29219938%" y1="49.0526312%" x2="90.1073364%" y2="51.0486745%" id="linearGradient-15">
            <stop stop-color="#002BFF" offset="0%"></stop>
            <stop stop-color="#0080FF" offset="100%"></stop>
        </linearGradient>
        <linearGradient x1="6.29220042%" y1="16.0129535%" x2="90.1073364%" y2="85.3715577%" id="linearGradient-16">
            <stop stop-color="#0055FF" offset="0%"></stop>
            <stop stop-color="#0084FF" offset="54.2367788%"></stop>
            <stop stop-color="#003EBB" offset="61.0003278%"></stop>
            <stop stop-color="#004B96" offset="100%"></stop>
        </linearGradient>
        <linearGradient x1="91.5560761%" y1="80.9530387%" x2="5.71860773%" y2="15.2528165%" id="linearGradient-17">
            <stop stop-color="#5D93FF" offset="0%"></stop>
            <stop stop-color="#82C1FF" offset="100%"></stop>
        </linearGradient>
        <linearGradient x1="64.9324221%" y1="70.967849%" x2="13.7061828%" y2="20.9392141%" id="linearGradient-18">
            <stop stop-color="#A4C2FF" stop-opacity="0.3" offset="0%"></stop>
            <stop stop-color="#D1E7FF" stop-opacity="0.8" offset="100%"></stop>
            <stop stop-color="#C2E0FF" offset="100%"></stop>
        </linearGradient>
        <radialGradient cx="13.6926114%" cy="20.1346273%" fx="13.6926114%" fy="20.1346273%" r="86.3213665%" gradientTransform="translate(0.136926,0.201346),scale(1.000000,0.949606),rotate(67.801337),translate(-0.136926,-0.201346)" id="radialGradient-19">
            <stop stop-color="#FF6363" offset="0%"></stop>
            <stop stop-color="#D82A67" offset="100%"></stop>
        </radialGradient>
        <path d="M1.86270539,0.817971501 C2.07307506,0.799797285 2.2868885,0.826452801 2.49411386,0.891122719 C2.70118948,0.955641184 2.90167702,1.0580226 3.08524514,1.19114873 C3.26881327,1.32442631 3.43561171,1.48829715 3.57545888,1.67609738 C3.71530605,1.86389761 3.82820194,2.07562722 3.90396497,2.30416799 C3.98287231,2.54194731 4.01401601,2.77548598 4.00293604,2.99418237 C3.99185607,3.21318167 3.93825298,3.41718724 3.84766675,3.59605182 C3.75708052,3.77491639 3.62951116,3.92848851 3.47004945,4.04616656 C3.31058774,4.1638446 3.11938342,4.24547712 2.90182675,4.28046249 C2.89359164,4.28182555 2.88535653,4.28303717 2.87697168,4.28424878 C2.86873657,4.2854604 2.86035173,4.28652056 2.85211662,4.28758072 C2.84373178,4.28864088 2.83549667,4.2895496 2.82711183,4.29045831 C2.81872699,4.29136702 2.81049187,4.29227573 2.80210703,4.29288153 C2.59128818,4.31196446 2.37672609,4.28591475 2.16860235,4.22169919 C1.96062835,4.15748363 1.75924244,4.05525366 1.57462621,3.92182463 C1.39015971,3.7883956 1.22246289,3.62391895 1.08201681,3.43521001 C0.941570722,3.24665252 0.82837537,3.0340142 0.752612343,2.80441327 C0.67385473,2.56587669 0.643010493,2.33158076 0.654988837,2.11243001 C0.666817452,1.89312781 0.721169189,1.68897079 0.812504064,1.51040912 C0.903988667,1.33184745 1.03230668,1.17888113 1.1923673,1.06196035 C1.3522782,0.94519101 1.54363225,0.864467202 1.76118892,0.830239096 C1.76957376,0.829027482 1.77810833,0.827664416 1.78649318,0.826604253 C1.79502775,0.825392639 1.80341259,0.824332476 1.81194716,0.823272314 C1.820332,0.822212151 1.82886657,0.82130344 1.83725141,0.82039473 C1.84578598,0.819486019 1.85417082,0.81872876 1.86270539,0.817971501" id="path-20"></path>
        <filter x="0.0%" y="0.0%" width="100.0%" height="100.0%" filterUnits="objectBoundingBox" id="filter-21">
            <feOffset dx="0" dy="0" in="SourceAlpha" result="shadowOffsetInner1"></feOffset>
            <feComposite in="shadowOffsetInner1" in2="SourceAlpha" operator="arithmetic" k2="-1" k3="1" result="shadowInnerInner1"></feComposite>
            <feColorMatrix values="0 0 0 0 1   0 0 0 0 1   0 0 0 0 1  0 0 0 0.4 0" type="matrix" in="shadowInnerInner1"></feColorMatrix>
        </filter>
        <linearGradient x1="21.4162114%" y1="19.854978%" x2="62.4540716%" y2="100%" id="linearGradient-22">
            <stop stop-color="#FFB500" offset="0%"></stop>
            <stop stop-color="#FF8817" offset="100%"></stop>
        </linearGradient>
        <path d="M8.28106156,0.411732345 C8.49143123,0.39355813 8.70524467,0.420213646 8.91247002,0.484883563 C9.11954565,0.549402029 9.31988346,0.651783444 9.50345158,0.784909573 C9.68701971,0.918187155 9.85366842,1.082058 9.99336586,1.27000968 C10.1329136,1.45780991 10.2456597,1.66938807 10.321273,1.89792883 C10.4000306,2.13570815 10.4313241,2.36924682 10.4200944,2.58809467 C10.4090144,2.80694252 10.3554113,3.01109954 10.2648251,3.18996411 C10.1742389,3.36882868 10.0466695,3.52240081 9.88720778,3.6399274 C9.7278958,3.75760545 9.53669149,3.83938942 9.31913481,3.87437478 C9.31074997,3.87573785 9.30251486,3.87694946 9.29427975,3.87816108 C9.2858949,3.87937269 9.27765979,3.88043286 9.26942468,3.88149302 C9.26103984,3.88255318 9.25280473,3.88346189 9.24441989,3.8843706 C9.23603505,3.88527931 9.22779994,3.88603657 9.21941509,3.88679383 C9.00874597,3.90572531 8.7943336,3.8796756 8.5863596,3.81546003 C8.3783856,3.75139592 8.17699969,3.64901451 7.99238346,3.51558548 C7.80791696,3.38215644 7.64022014,3.21767979 7.49992379,3.0291223 C7.3594777,2.84041336 7.24643208,2.62792649 7.17096851,2.39817412 C7.0922109,2.15963754 7.06136666,1.92534161 7.073345,1.70619086 C7.08517362,1.48688865 7.13952536,1.28273163 7.23086023,1.10416996 C7.32234483,0.925608293 7.45066285,0.772641978 7.61072347,0.65572119 C7.77063436,0.538951855 7.96198841,0.458228047 8.17954509,0.423999941 C8.18792993,0.422788326 8.1964645,0.42142526 8.20484934,0.420365098 C8.21338391,0.419153483 8.22176875,0.418093321 8.23030332,0.417033158 C8.23868816,0.415972996 8.24722273,0.415064285 8.25560757,0.414155574 C8.26414215,0.413246863 8.27252699,0.412489604 8.28106156,0.411732345" id="path-23"></path>
        <filter x="-0.0%" y="0.0%" width="100.0%" height="100.0%" filterUnits="objectBoundingBox" id="filter-24">
            <feOffset dx="0" dy="0" in="SourceAlpha" result="shadowOffsetInner1"></feOffset>
            <feComposite in="shadowOffsetInner1" in2="SourceAlpha" operator="arithmetic" k2="-1" k3="1" result="shadowInnerInner1"></feComposite>
            <feColorMatrix values="0 0 0 0 1   0 0 0 0 1   0 0 0 0 1  0 0 0 0.4 0" type="matrix" in="shadowInnerInner1"></feColorMatrix>
        </filter>
        <linearGradient x1="14.6063545%" y1="23.4191809%" x2="57.8688558%" y2="100%" id="linearGradient-25">
            <stop stop-color="#2CE0B7" offset="0%"></stop>
            <stop stop-color="#0AAFA4" offset="100%"></stop>
        </linearGradient>
        <path d="M14.6982498,0.00558406084 C14.9086195,-0.0125901548 15.1224329,0.0140653615 15.3296583,0.0787352789 C15.5367339,0.143253744 15.7372215,0.245635159 15.9207896,0.378761289 C16.1043577,0.512038871 16.2711562,0.675909715 16.4110033,0.863709944 C16.5508505,1.05151017 16.6637464,1.26323978 16.7395094,1.49178055 C16.8184168,1.72955987 16.8495605,1.96309854 16.8384805,2.18179493 C16.8274005,2.40079423 16.7737974,2.6047998 16.6832112,2.78366438 C16.592625,2.96252895 16.4650556,3.11610107 16.3055939,3.23377912 C16.1461322,3.35145716 15.9549279,3.43308968 15.7373712,3.46807505 C15.7291361,3.46943811 15.720901,3.47064973 15.7125161,3.47186134 C15.704281,3.47307296 15.6958962,3.47413312 15.6876611,3.47519328 C15.6792762,3.47625344 15.6710411,3.47716216 15.6626563,3.47807087 C15.6542714,3.47897958 15.6460363,3.47988829 15.6376515,3.48049409 C15.4268326,3.49957702 15.2122705,3.47352731 15.0041468,3.40931175 C14.7961728,3.34509619 14.5947869,3.24286623 14.4101707,3.10943719 C14.2257042,2.97600816 14.0580073,2.81153151 13.9175613,2.62282257 C13.7771152,2.43426508 13.6639198,2.22162676 13.5881568,1.99202583 C13.5093992,1.75348925 13.4785549,1.51919332 13.4905333,1.30004257 C13.5023619,1.08074037 13.5567136,0.876583346 13.6480485,0.698021677 C13.7395331,0.519460009 13.8678511,0.366493693 14.0279117,0.249572906 C14.1878226,0.13280357 14.3791767,0.0520797626 14.5967334,0.0178516564 C14.6051182,0.016640042 14.6136528,0.0152769759 14.6220376,0.0142168133 C14.6305722,0.0130051989 14.638957,0.0119450363 14.6474916,0.0108848737 C14.6558764,0.00982471116 14.664411,0.00891600038 14.6727959,0.0080072896 C14.6813304,0.00709857881 14.6897153,0.00634131983 14.6982498,0.00558406084" id="path-26"></path>
        <filter x="-0.0%" y="0.0%" width="100.0%" height="100.0%" filterUnits="objectBoundingBox" id="filter-27">
            <feOffset dx="0" dy="0" in="SourceAlpha" result="shadowOffsetInner1"></feOffset>
            <feComposite in="shadowOffsetInner1" in2="SourceAlpha" operator="arithmetic" k2="-1" k3="1" result="shadowInnerInner1"></feComposite>
            <feColorMatrix values="0 0 0 0 1   0 0 0 0 1   0 0 0 0 1  0 0 0 0.402671547 0" type="matrix" in="shadowInnerInner1"></feColorMatrix>
        </filter>
        <linearGradient x1="6.93254738%" y1="24.2959743%" x2="74.4702096%" y2="81.6988807%" id="linearGradient-28">
            <stop stop-color="#001339" offset="0%"></stop>
            <stop stop-color="#001339" stop-opacity="0" offset="100%"></stop>
        </linearGradient>
        <linearGradient x1="68.3726276%" y1="14.2409787%" x2="74.7823132%" y2="79.4948113%" id="linearGradient-29">
            <stop stop-color="#ADD6FF" offset="0%"></stop>
            <stop stop-color="#D9ECFF" offset="15.3331016%"></stop>
            <stop stop-color="#EEF6FF" offset="28.2968407%"></stop>
            <stop stop-color="#F8FAFF" offset="64.9542958%"></stop>
            <stop stop-color="#DFE6F2" offset="100%"></stop>
        </linearGradient>
        <path d="M0,2.70747138 C1.81092072,10.0427137 5.38641103,15.2032632 11.0530777,22.0775147 C19.5530777,32.388892 23.8030777,41.6942812 22.0530777,50.7481734 C43.2197444,48.0655387 56.3030777,46.4727243 61.3030777,45.9697303 C63.0530777,36.9158381 58.3030777,28.1134429 49.8030777,18.3050597 C44.136411,11.7661375 38.6762575,7.04191617 37.1762575,0 L0,2.70747138 Z" id="path-30"></path>
        <linearGradient x1="59.8621867%" y1="-2.79593791%" x2="57.5337234%" y2="99.0430149%" id="linearGradient-32">
            <stop stop-color="#9CCDFF" offset="0%"></stop>
            <stop stop-color="#FFFFFF" offset="33.7012157%"></stop>
            <stop stop-color="#FFFFFF" offset="76.6898097%"></stop>
            <stop stop-color="#ECF2FF" offset="100%"></stop>
        </linearGradient>
        <linearGradient x1="37.5071261%" y1="30.1653931%" x2="47.7886625%" y2="71.8524849%" id="linearGradient-33">
            <stop stop-color="#95A4BE" offset="0%"></stop>
            <stop stop-color="#5C6B8A" offset="100%"></stop>
        </linearGradient>
    </defs>
    <g id="定稿" stroke="none" stroke-width="1" fill="none" fill-rule="evenodd">
        <g id="1.11-环境预检查-成功" transform="translate(-822.000000, -402.000000)">
            <rect fill="#F5F8FE" x="0" y="0" width="1280" height="800"></rect>
            <g id="矩形备份">
                <use fill="black" fill-opacity="1" filter="url(#filter-2)" xlink:href="#path-1"></use>
                <use fill="#FFFFFF" fill-rule="evenodd" xlink:href="#path-1"></use>
            </g>
            <rect id="蒙版" fill="#F8FAFE" x="648" y="226" width="488" height="458" rx="8"></rect>
            <g id="编组-9" transform="translate(815.000000, 402.000000)">
                <g id="暂无数据" transform="translate(7.000000, 0.000000)">
                    <g id="编组-8" opacity="0.6" transform="translate(14.353901, 11.148434)">
                        <g id="橙色" transform="translate(14.896099, 25.067135) rotate(1.000000) translate(-14.896099, -25.067135) translate(0.146099, 16.516236)">
                            <path d="M26.2725959,13.865342 C26.0378194,13.9621321 25.7923654,14.0427258 25.5367425,14.1058273 C25.2811196,14.1689288 25.0153277,14.2145381 24.7402566,14.2413595 L10.540283,15.6264826 C9.61477808,15.7167942 8.67516367,15.5969402 7.76936114,15.3030712 C6.86216038,15.008684 5.9897884,14.539893 5.20029366,13.9334967 C4.41029048,13.3265822 3.70405432,12.582451 3.12988789,11.7379017 C2.55597568,10.8937411 2.11451453,9.95019886 1.85342578,8.94485086 C1.68767129,8.30683906 1.6042856,7.68100701 1.59615041,7.07862747 C1.58801522,6.47689578 1.65500342,5.89874618 1.79012384,5.35506269 C1.92499003,4.8122862 2.12786132,4.30397582 2.39149231,3.84114516 C2.65474197,3.37896236 2.97849709,2.96225929 3.35602074,2.60179039 C2.82367427,3.11023034 2.29120068,3.61867029 1.7588542,4.12698067 C1.38260168,4.48628341 1.05960923,4.90143163 0.796995136,5.36154128 C0.533999707,5.82242836 0.331382639,6.32853601 0.196262222,6.86872107 C0.0610146939,7.40981312 -0.00660907036,7.98498257 0.000509220616,8.58360453 C0.00775462393,9.18274478 0.0897420825,9.80520796 0.253717,10.4395917 C0.512009272,11.4392386 0.949784167,12.3769501 1.51962878,13.2157983 C2.08972762,14.054776 2.79126062,14.7938538 3.57643354,15.3962334 C4.361098,15.9982242 5.22863972,16.4629985 6.1308831,16.754276 C7.03185535,17.0451648 7.96676661,17.162816 8.88782261,17.0714679 L23.0233503,15.6702779 C23.2971502,15.6431973 23.5617981,15.5973289 23.8164041,15.5340978 C24.070883,15.4709964 24.3154472,15.3904027 24.5493339,15.2937421 C24.7830935,15.1970815 25.0061756,15.0844835 25.2178177,14.9569848 C25.4294597,14.8294861 25.6296616,14.6872162 25.8177879,14.5314708 L27.5456259,13.1012567 C27.3568641,13.2575204 27.1558995,13.400179 26.9436219,13.5279369 C26.7310901,13.6558243 26.5072452,13.7686814 26.2725959,13.865342 Z" id="Fill-1" fill="url(#linearGradient-3)"></path>
                            <path d="M20.840539,0.0186718559 C21.7279103,-0.05168566 22.6274843,0.0789227672 23.4940091,0.374476163 C24.3593899,0.669640843 25.1926113,1.12949135 25.9485484,1.71852499 C26.703977,2.30716991 27.3830111,3.02538669 27.9403987,3.83806135 C28.4980406,4.65112473 28.9345443,5.55942341 29.2045309,6.52836172 C29.4748989,7.49846618 29.5538356,8.44200841 29.4653655,9.31752542 C29.3765139,10.1947269 29.1194928,11.0040327 28.7176907,11.7033319 C28.3149988,12.4041861 27.7667633,12.994645 27.0968812,13.4318205 C26.4254739,13.870162 25.6317844,14.1544427 24.7403456,14.2413854 L10.5402449,15.6265085 C9.61486706,15.7168201 8.67512554,15.5969661 7.76932301,15.3030971 C6.86224936,15.0087099 5.98975027,14.5399189 5.20025553,13.9335227 C4.41025235,13.3266081 3.7041433,12.5823474 3.12997687,11.7379276 C2.55593755,10.893767 2.11447639,9.95022478 1.85338765,8.94487677 C1.59255313,7.94082449 1.5356068,6.96735116 1.6550924,6.06760422 C1.77432378,5.16980085 2.0692244,4.34598301 2.51233801,3.63890941 C2.95430762,2.93352025 3.54385464,2.34448661 4.25352283,1.91391934 C4.96141145,1.48425908 5.789167,1.21215819 6.70984167,1.13920924 L20.840539,0.0186718559 Z" id="Fill-3" fill="#47D1A3"></path>
                            <path d="M2.94696376,3.03930775 L2.90972665,3.09925529 C2.46661303,3.80632889 2.17171241,4.63014672 2.05248103,5.52795009 C1.93299543,6.42769703 1.98994176,7.40117036 2.25077628,8.40522264 C2.51186503,9.41057065 2.95332618,10.3541129 3.5273655,11.1982735 C4.10153193,12.0426933 4.80764098,12.786954 5.59764416,13.3938685 C6.3871389,14.0002648 7.25963799,14.4690558 8.16671164,14.763443 C9.07251417,15.057312 10.0122557,15.1771659 10.9376335,15.0868544 L25.1377342,13.7017313 C26.0291731,13.6147885 26.8228625,13.3305079 27.4942699,12.8921663 C27.9039745,12.6247867 28.2681756,12.3000694 28.5814061,11.9278263 L28.7176907,11.7033319 C28.3149988,12.4041861 27.7667633,12.994645 27.0968812,13.4318205 C26.4254739,13.870162 25.6317844,14.1544427 24.7403456,14.2413854 L10.5402449,15.6265085 C9.61486706,15.7168201 8.67512554,15.5969661 7.76932301,15.3030971 C6.86224936,15.0087099 5.98975027,14.5399189 5.20025553,13.9335227 C4.41025235,13.3266081 3.7041433,12.5823474 3.12997687,11.7379276 C2.55593755,10.893767 2.11447639,9.95022478 1.85338765,8.94487677 C1.59255313,7.94082449 1.5356068,6.96735116 1.6550924,6.06760422 C1.77432378,5.16980085 2.0692244,4.34598301 2.51233801,3.63890941 C2.6443005,3.42829559 2.78941936,3.22805473 2.94696376,3.03930775 Z" id="形状结合" fill-opacity="0.5" fill="url(#linearGradient-4)" style="mix-blend-mode: soft-light;"></path>
                            <g id="&gt;_" transform="translate(7.500000, 3.520958)">
                                <path d="M0,0.637362139 L6.23559454,3.36829663 L6.63887683,4.84240197 L2.1214333,8.5508982 L1.5189516,6.30328633 L3.93262003,4.34175536 L0.60315734,2.88739299 L0,0.637362139 Z M15.225273,5.05113463 L15.7778554,7.06708835 L9.35918833,7.64371034 L8.81352447,5.60438529 L15.225273,5.05113463 Z" id="形状结合" fill="#441300" style="mix-blend-mode: soft-light;"></path>
                                <g id="编组-6" transform="translate(0.264330, 0.000000)">
                                    <polygon id="Fill-4" fill="url(#linearGradient-5)" points="4.68517749 3.51850879 3.95295775 4.16310958 0.537939774 2.67499584 1.2577802 2.02133049"></polygon>
                                    <polygon id="Fill-5" fill="url(#linearGradient-6)" points="1.2577551 2.0213559 0.537998325 2.67502126 -3.63797881e-12 0.661247397 0.715909152 4.23577858e-05"></polygon>
                                    <polygon id="Fill-6" fill="#FFFFFF" points="0.71586733 0 6.73413809 2.63575559 7.1100343 4.00975745 2.75025714 7.58882094 2.20046501 5.53777222 4.68519422 3.51849185 1.25771328 2.02131355"></polygon>
                                    <polygon id="Fill-8" fill="url(#linearGradient-7)" points="2.75028223 7.58882941 2.01973538 8.2214853 1.47387452 6.17823042 2.20040646 5.5377807"></polygon>
                                </g>
                                <g id="编组-7" transform="translate(9.052621, 4.350470)">
                                    <polygon id="Fill-9" fill="#FFFFFF" points="0.719748413 0.537096726 1.21684481 2.39490922 7.44732044 1.83519344 6.94428532 4.57470389e-13"></polygon>
                                    <polygon id="Fill-10" fill="url(#linearGradient-8)" points="1.21681972 2.39493463 0.49346625 3.0388577 6.70512198 2.47405898 7.44737899 1.83513413"></polygon>
                                    <polygon id="Fill-11" fill="url(#linearGradient-9)" points="0 1.18806812 0.493416064 3.03893394 1.21685318 2.39492616 0.719756777 0.537113669"></polygon>
                                </g>
                            </g>
                        </g>
                        <g id="绿色" transform="translate(18.146099, 34.121027)">
                            <path d="M26.2725959,13.865342 C26.0378194,13.9621321 25.7923654,14.0427258 25.5367425,14.1058273 C25.2811196,14.1689288 25.0153277,14.2145381 24.7402566,14.2413595 L10.540283,15.6264826 C9.61477808,15.7167942 8.67516367,15.5969402 7.76936114,15.3030712 C6.86216038,15.008684 5.9897884,14.539893 5.20029366,13.9334967 C4.41029048,13.3265822 3.70405432,12.582451 3.12988789,11.7379017 C2.55597568,10.8937411 2.11451453,9.95019886 1.85342578,8.94485086 C1.68767129,8.30683906 1.6042856,7.68100701 1.59615041,7.07862747 C1.58801522,6.47689578 1.65500342,5.89874618 1.79012384,5.35506269 C1.92499003,4.8122862 2.12786132,4.30397582 2.39149231,3.84114516 C2.65474197,3.37896236 2.97849709,2.96225929 3.35602074,2.60179039 C2.82367427,3.11023034 2.29120068,3.61867029 1.7588542,4.12698067 C1.38260168,4.48628341 1.05960923,4.90143163 0.796995136,5.36154128 C0.533999707,5.82242836 0.331382639,6.32853601 0.196262222,6.86872107 C0.0610146939,7.40981312 -0.00660907036,7.98498257 0.000509220613,8.58360453 C0.00775462393,9.18274478 0.0897420825,9.80520796 0.253717,10.4395917 C0.512009272,11.4392386 0.949784167,12.3769501 1.51962878,13.2157983 C2.08972762,14.054776 2.79126062,14.7938538 3.57643354,15.3962334 C4.361098,15.9982242 5.22863972,16.4629985 6.1308831,16.754276 C7.03185535,17.0451648 7.96676661,17.162816 8.88782261,17.0714679 L23.0233503,15.6702779 C23.2971502,15.6431973 23.5617981,15.5973289 23.8164041,15.5340978 C24.070883,15.4709964 24.3154472,15.3904027 24.5493339,15.2937421 C24.7830935,15.1970815 25.0061756,15.0844835 25.2178177,14.9569848 C25.4294597,14.8294861 25.6296616,14.6872162 25.8177879,14.5314708 L27.5456259,13.1012567 C27.3568641,13.2575204 27.1558995,13.400179 26.9436219,13.5279369 C26.7310901,13.6558243 26.5072452,13.7686814 26.2725959,13.865342 Z" id="Fill-1" fill="url(#linearGradient-10)"></path>
                            <path d="M20.840539,0.0186718559 C21.7279103,-0.05168566 22.6274843,0.0789227672 23.4940091,0.374476163 C24.3593899,0.669640843 25.1926113,1.12949135 25.9485484,1.71852499 C26.703977,2.30716991 27.3830111,3.02538669 27.9403987,3.83806135 C28.4980406,4.65112473 28.9345443,5.55942341 29.2045309,6.52836172 C29.4748989,7.49846618 29.5538356,8.44200841 29.4653655,9.31752542 C29.3765139,10.1947269 29.1194928,11.0040327 28.7176907,11.7033319 C28.3149988,12.4041861 27.7667633,12.994645 27.0968812,13.4318205 C26.4254739,13.870162 25.6317844,14.1544427 24.7403456,14.2413854 L10.5402449,15.6265085 C9.61486706,15.7168201 8.67512554,15.5969661 7.76932301,15.3030971 C6.86224936,15.0087099 5.98975027,14.5399189 5.20025553,13.9335227 C4.41025235,13.3266081 3.7041433,12.5823474 3.12997687,11.7379276 C2.55593755,10.893767 2.11447639,9.95022478 1.85338765,8.94487677 C1.59255313,7.94082449 1.5356068,6.96735116 1.6550924,6.06760422 C1.77432378,5.16980085 2.0692244,4.34598301 2.51233801,3.63890941 C2.95430762,2.93352025 3.54385464,2.34448661 4.25352283,1.91391934 C4.96141145,1.48425908 5.789167,1.21215819 6.70984167,1.13920924 L20.840539,0.0186718559 Z" id="Fill-3" fill="#FFCC3B"></path>
                            <path d="M2.94696376,3.03930775 L2.90972665,3.09925529 C2.46661303,3.80632889 2.17171241,4.63014672 2.05248103,5.52795009 C1.93299543,6.42769703 1.98994176,7.40117036 2.25077628,8.40522264 C2.51186503,9.41057065 2.95332618,10.3541129 3.5273655,11.1982735 C4.10153193,12.0426933 4.80764098,12.786954 5.59764416,13.3938685 C6.3871389,14.0002648 7.25963799,14.4690558 8.16671164,14.763443 C9.07251417,15.057312 10.0122557,15.1771659 10.9376335,15.0868544 L25.1377342,13.7017313 C26.0291731,13.6147885 26.8228625,13.3305079 27.4942699,12.8921663 C27.9039745,12.6247867 28.2681756,12.3000694 28.5814061,11.9278263 L28.7176907,11.7033319 C28.3149988,12.4041861 27.7667633,12.994645 27.0968812,13.4318205 C26.4254739,13.870162 25.6317844,14.1544427 24.7403456,14.2413854 L10.5402449,15.6265085 C9.61486706,15.7168201 8.67512554,15.5969661 7.76932301,15.3030971 C6.86224936,15.0087099 5.98975027,14.5399189 5.20025553,13.9335227 C4.41025235,13.3266081 3.7041433,12.5823474 3.12997687,11.7379276 C2.55593755,10.893767 2.11447639,9.95022478 1.85338765,8.94487677 C1.59255313,7.94082449 1.5356068,6.96735116 1.6550924,6.06760422 C1.77432378,5.16980085 2.0692244,4.34598301 2.51233801,3.63890941 C2.6443005,3.42829559 2.78941936,3.22805473 2.94696376,3.03930775 Z" id="形状结合" fill-opacity="0.5" fill="url(#linearGradient-4)" style="mix-blend-mode: soft-light;"></path>
                            <g id="/" transform="translate(10.291931, 4.023952)">
                                <polygon id="Fill-1备份" fill="#003A2A" style="mix-blend-mode: soft-light;" points="2.49927039 0.640893178 2.27371706 7.56832891 1.77583842e-14 7.78569353 0.249567847 0.826445148"></polygon>
                                <polygon id="Fill-1" fill="#F5F9FF" points="3.20806923 0 1.15871646 0.169027432 0.916462767 6.92431908 2.98906865 6.72618044"></polygon>
                                <polygon id="Fill-2" fill="url(#linearGradient-11)" points="0.91643846 6.9242859 0.20806923 7.54491018 2.27443648 7.34511279 2.98912537 6.72614727"></polygon>
                                <polygon id="Fill-3" fill="url(#linearGradient-12)" points="0.456828929 0.812650388 0.208093536 7.5448853 0.916462767 6.92426102 1.15871646 0.169052314"></polygon>
                            </g>
                            <polygon id="shadow" fill="#001B54" style="mix-blend-mode: soft-light;" points="15.7168503 0.424470273 18.8982939 14.8069233 18.3436661 16.1336312 25.0977859 15.4644256 20.4085278 0.0540709353"></polygon>
                        </g>
                        <g id="容器" transform="translate(30.387459, 0.000000)">
                            <polygon id="路径备份-3" fill="url(#linearGradient-13)" points="11.9755032 12.4002425 51.7795409 9.62367671 62.3835198 46.9977396 22.1355347 51.4693539"></polygon>
                            <polygon id="Fill-1" fill="url(#linearGradient-14)" points="62.3835647 46.9976942 58.1755724 50.1486488 47.7951394 13.1833543 51.7795858 9.62378273"></polygon>
                            <polygon id="Fill-2" fill="url(#linearGradient-15)" points="51.7796457 9.62375244 47.7951992 13.183324 8.3503621 16.0728729 11.9754582 12.4001668"></polygon>
                            <path d="M1.67151545,4.20098643 L4.41855993,1.55190352 L4.41855993,1.55190352 L17.0673552,54.6563355 C17.5374171,56.6298332 19.4104218,57.9389217 21.4252688,57.7021872 L69.2586103,52.0820067 L69.2586103,52.0820067 L64.9718603,55.1593558 L17.5603145,60.8627991 C15.5640133,61.1029472 13.6997039,59.8238513 13.2053525,57.8748756 L0.570917357,8.06373088 C0.217893354,6.67193699 0.637941906,5.197702 1.67151545,4.20098643 Z" id="路径" fill="url(#linearGradient-16)"></path>
                            <path d="M22.7204091,0.0070242517 L5.6911666,0.988589705 C4.58842743,1.05215158 3.7460078,1.99762539 3.80956968,3.10036456 C3.81700498,3.22936008 3.83692331,3.35733153 3.86904541,3.48248463 L17.0226452,54.7311243 C17.5203962,56.6704459 19.3753336,57.9430177 21.3638348,57.7093786 L69.2586402,52.0819764 L69.2586402,52.0819764 L56.1727166,6.45850415 C55.6547716,4.65271284 53.9499779,3.45067405 52.0751252,3.56931958 L31.9912646,4.84027826 C30.9841787,4.90400926 29.9902177,4.58474655 29.2086138,3.94648406 L25.4806128,0.902175612 C24.7050213,0.268822851 23.7200879,-0.0505972279 22.7204091,0.0070242517 Z M11.9755032,12.4002425 L51.7795409,9.62367671 L62.3835198,46.9977396 L22.1355347,51.4693539 L11.9755032,12.4002425 Z" id="Fill-3" fill="url(#linearGradient-17)"></path>
                            <path d="M4.30956968,2.59737054 C4.31700498,2.72636607 4.33692331,2.85433751 4.36904541,2.97949062 L17.5226452,54.2281302 C18.0203962,56.1674519 19.8753336,57.4400237 21.8638348,57.2063846 L69.1349765,51.6518801 L69.2586402,52.0819764 L21.3638348,57.7093786 C19.3753336,57.9430177 17.5203962,56.6704459 17.0226452,54.7311243 L3.86904541,3.48248463 C3.83692331,3.35733153 3.81700498,3.22936008 3.80956968,3.10036456 C3.76817475,2.38220135 4.11103528,1.73073937 4.65980818,1.3461386 C4.41550971,1.7003933 4.28292218,2.13506147 4.30956968,2.59737054 Z M52.2795409,9.1206827 L62.8835198,46.4947456 L62.2599765,46.5638801 L51.7795409,9.62367671 L12.5949962,12.3570292 L11.9769765,12.3998801 L11.8706034,11.9884031 L52.2795409,9.1206827 Z" id="形状结合" fill="url(#linearGradient-18)" style="mix-blend-mode: soft-light;" opacity="0.6"></path>
                            <g id="编组-2" transform="translate(16.838860, 5.801454) rotate(-1.000000) translate(-16.838860, -5.801454) translate(8.418536, 3.364882)">
                                <path d="M3.54853755,3.98313232 L2.89047727,4.55728608 C2.8472055,4.59514903 2.80093914,4.62998294 2.75212739,4.66178782 C2.70331564,4.6935927 2.65195849,4.72206564 2.59790621,4.74720664 C2.54385393,4.77234763 2.48740599,4.79400524 2.42856237,4.812028 C2.36956902,4.82989932 2.30832974,4.84428724 2.24469479,4.85443451 C2.23645967,4.85579757 2.22822456,4.85700919 2.21998945,4.8582208 C2.21160461,4.85943242 2.2033695,4.86049258 2.19498466,4.86155274 C2.18674955,4.86261291 2.17836471,4.86352162 2.17012959,4.86443033 C2.16174475,4.86533904 2.15350964,4.86624775 2.1451248,4.86700501 C1.9346054,4.88608793 1.72034277,4.86018968 1.51266823,4.79612557 C1.30499368,4.73221291 1.10405696,4.6301344 0.91974019,4.49715972 C0.735573148,4.36403359 0.568325517,4.19985984 0.42817889,4.01175671 C0.288032263,3.82350212 0.175136369,3.61131816 0.099672801,3.38217159 C0.044722147,3.21542316 0.0131292642,3.05094651 0.00339685954,2.89207357 C-0.00648527441,2.73320064 0.00534334047,2.58023432 0.0369362233,2.43650657 C0.0683793768,2.29293026 0.119586798,2.15874397 0.188761736,2.03758253 C0.257786944,1.9164211 0.344779669,1.80828451 0.4476437,1.71665617 L1.10031373,1.13629289 C0.997299969,1.22792123 0.910307244,1.33620926 0.841132306,1.45752215 C0.771957368,1.57883504 0.720749947,1.71332424 0.689157064,1.85720344 C0.657713911,2.00108265 0.646035025,2.15435187 0.655917159,2.31337626 C0.665799293,2.47255209 0.697392176,2.6374831 0.752492559,2.80453443 C0.828255586,3.03413536 0.941600668,3.24662223 1.08204675,3.43533117 C1.22249284,3.62388866 1.39003993,3.78836531 1.57465616,3.92179434 C1.75927239,4.05522337 1.9606583,4.15745334 2.1686323,4.2216689 C2.3766063,4.28588446 2.59116839,4.31193417 2.80213698,4.2930027 C2.81052182,4.29224544 2.81875693,4.29133673 2.82714177,4.29042802 C2.83552661,4.28967076 2.84376173,4.28861059 2.85214657,4.28755043 C2.86038168,4.28664172 2.86876652,4.28543011 2.87700163,4.28421849 C2.88538647,4.28315833 2.89362158,4.28179526 2.90185669,4.28058365 C2.96549165,4.27028493 3.02688066,4.25604846 3.08587401,4.23802569 C3.14486735,4.22015438 3.20146503,4.19834532 3.25551731,4.17320432 C3.30956958,4.14806333 3.36107646,4.11959039 3.41003795,4.08778551 C3.4588497,4.05598063 3.50511605,4.02099527 3.54853755,3.98313232" id="Fill-8" fill="url(#radialGradient-19)"></path>
                                <g id="Fill-10">
                                    <use fill="#FF9898" fill-rule="evenodd" xlink:href="#path-20"></use>
                                    <use fill="black" fill-opacity="1" filter="url(#filter-21)" xlink:href="#path-20"></use>
                                </g>
                                <path d="M9.96572583,3.57698403 L9.30766555,4.1511378 C9.26439378,4.18900075 9.21812742,4.22383466 9.16931567,4.25563954 C9.12050392,4.28744442 9.06914677,4.31591735 9.01509449,4.34105835 C8.96104221,4.36619935 8.90459426,4.38785696 8.84575065,4.40587972 C8.7867573,4.42375103 8.72551802,4.43813895 8.66188306,4.44828622 C8.65364795,4.44964929 8.64541284,4.4508609 8.63717773,4.45207252 C8.62879289,4.45328413 8.62055778,4.4543443 8.61232266,4.45540446 C8.60393782,4.45646462 8.59570271,4.45737333 8.58731787,4.45828204 C8.57908276,4.45919075 8.57069792,4.46009946 8.56246281,4.46085672 C8.35209314,4.4797882 8.13798024,4.45388994 7.93045542,4.38997728 C7.72278088,4.32606462 7.52169443,4.22398611 7.33752738,4.09085998 C7.15336034,3.9578853 6.98611271,3.79371156 6.84611581,3.60545697 C6.70596919,3.41735384 6.59322302,3.20516987 6.51790918,2.9760233 C6.46295853,2.80927487 6.43151538,2.64464677 6.42178297,2.48577384 C6.41190084,2.3269009 6.42372945,2.17393459 6.45517261,2.03035828 C6.48676549,1.88663053 6.53797291,1.75244423 6.60714785,1.6312828 C6.67617306,1.51012136 6.76316578,1.40198478 6.86602981,1.31050789 L7.51869984,0.729993152 C7.41568608,0.821621489 7.32854363,0.929909524 7.25951842,1.05122241 C7.19034348,1.17268675 7.13898633,1.3070245 7.10754318,1.45090371 C7.07610002,1.59478291 7.06427141,1.74805213 7.07430327,1.90722797 C7.08418541,2.06625236 7.11577829,2.23118337 7.17087867,2.3982347 C7.24634224,2.62783562 7.35953759,2.84047395 7.49983395,3.02903143 C7.64028003,3.21758892 7.80782712,3.38221702 7.99244335,3.51564606 C8.17690985,3.64907509 8.37844549,3.75130505 8.5864195,3.81552062 C8.7943935,3.87973618 9.00880586,3.90578589 9.21947499,3.88685441 C9.2277101,3.88609715 9.23609494,3.88518844 9.24447978,3.88427973 C9.25271489,3.88337102 9.26109973,3.88246231 9.26933484,3.88140215 C9.27771968,3.88034198 9.2859548,3.87928182 9.29418991,3.87807021 C9.30257475,3.87701004 9.31080986,3.87564698 9.31904497,3.87443536 C9.38267993,3.86413664 9.44406894,3.84990017 9.50306228,3.83187741 C9.56205563,3.8140061 9.61865331,3.79219704 9.67270558,3.76705604 C9.72675786,3.74206649 9.77826474,3.7134421 9.82722622,3.68163723 C9.87603798,3.64983235 9.92230433,3.61484698 9.96572583,3.57698403" id="Fill-12" fill="url(#linearGradient-22)"></path>
                                <g id="Fill-14">
                                    <use fill="#FFD765" fill-rule="evenodd" xlink:href="#path-23"></use>
                                    <use fill="black" fill-opacity="1" filter="url(#filter-24)" xlink:href="#path-23"></use>
                                </g>
                                <path d="M16.384082,3.17072973 L15.7260217,3.7448835 C15.6827499,3.78274645 15.6364836,3.81758036 15.5876718,3.84938524 C15.5388601,3.88119011 15.4875029,3.90966305 15.4334507,3.93480405 C15.3793984,3.95994505 15.3229504,3.98160266 15.2641068,3.99962542 C15.2051135,4.01749673 15.1438742,4.03188465 15.0802392,4.04203192 C15.0720041,4.04339499 15.063769,4.0446066 15.0555339,4.04581822 C15.0471491,4.04702983 15.0389139,4.04808999 15.0305291,4.04915016 C15.022294,4.05021032 15.0139091,4.05111903 15.005674,4.05202774 C14.9972892,4.05293645 14.9890541,4.05384516 14.9806692,4.05460242 C14.7701498,4.07368535 14.5558872,4.04778709 14.3482127,3.98372298 C14.1405381,3.91981032 13.9396014,3.81773181 13.7552846,3.68475713 C13.5711176,3.551631 13.40387,3.38745726 13.2637233,3.19935412 C13.1235767,3.01109954 13.0106808,2.79891557 12.9352172,2.569769 C12.8802666,2.40302057 12.8486737,2.23854392 12.8389413,2.07967099 C12.8290592,1.92079805 12.8408878,1.76783174 12.8724807,1.62410398 C12.9039238,1.48052768 12.9551312,1.34634139 13.0243062,1.22517995 C13.0934811,1.10401851 13.1803241,0.995881927 13.2831881,0.90425359 L13.9358582,0.323890303 C13.8328444,0.41551864 13.7458517,0.523806675 13.6766767,0.645119565 C13.6075018,0.766432454 13.5562944,0.90092165 13.5247015,1.04480086 C13.4932584,1.18868006 13.4815795,1.34194928 13.4914616,1.50097367 C13.5013437,1.66014951 13.5329366,1.82508052 13.588037,1.99213185 C13.6638,2.22173277 13.7771451,2.43421964 13.9175912,2.62292858 C14.0580373,2.81148607 14.2255844,2.97596272 14.4102006,3.10939176 C14.5948168,3.24282079 14.7962027,3.34505075 15.0041767,3.40926631 C15.2121507,3.47348188 15.4267128,3.49953159 15.6376814,3.48060011 C15.6460663,3.47984285 15.6543014,3.47893414 15.6626862,3.47802543 C15.6710711,3.47726817 15.6793062,3.47620801 15.687691,3.47514785 C15.6959261,3.47423914 15.704311,3.47302752 15.7125461,3.47181591 C15.7209309,3.47075574 15.729166,3.46939268 15.7374011,3.46818106 C15.8010361,3.45788234 15.8624251,3.44364587 15.9214185,3.42562311 C15.9804118,3.4077518 16.0370095,3.38594274 16.0910618,3.36080174 C16.145114,3.33581219 16.1966209,3.3071878 16.2455824,3.27538293 C16.2943941,3.24357805 16.3406605,3.20859268 16.384082,3.17072973" id="Fill-16" fill="url(#linearGradient-25)"></path>
                                <g id="Fill-18">
                                    <use fill="#3EF1B6" fill-rule="evenodd" xlink:href="#path-26"></use>
                                    <use fill="black" fill-opacity="1" filter="url(#filter-27)" xlink:href="#path-26"></use>
                                </g>
                            </g>
                        </g>
                        <g id="paper" transform="translate(42.843021, 11.540518)">
                            <path d="M0,2.70747138 C1.81092072,10.0427137 4.48030974,19.0891921 9.40796469,27.042866 C14.5668267,35.3697287 15.1444466,41.1147262 15.1962565,48.0662201 C17.3542167,47.8061105 50.6969138,41.8737505 54.0021079,41.1798071 C54.3061718,35.0446129 53.4185686,29.5155943 47.9677756,22.459244 C42.6929601,15.6307064 38.6762575,7.04191617 37.1762575,0 L0,2.70747138 Z" id="paper-shadow" fill="url(#linearGradient-28)" style="mix-blend-mode: soft-light;"></path>
                            <mask id="mask-31" fill="white">
                                <use xlink:href="#path-30"></use>
                            </mask>
                            <use id="蒙版" fill="url(#linearGradient-29)" xlink:href="#path-30"></use>
                            <polygon id="矩形" fill="#D4E3F8" mask="url(#mask-31)" points="35.3395769 10.8252094 38.8172557 10.5961718 41.1995256 13.2012543 37.8030777 13.5314138"></polygon>
                            <path d="M30.0908969,14.2811076 L37.8030777,13.5314138 C40.2485433,16.1617141 41.8364573,18.1292399 42.5668196,19.4339911 C41.1995256,19.5725253 38.5749074,19.8767855 34.9040171,20.1876628 C33.7170642,18.4380387 32.1126908,16.469187 30.0908969,14.2811076 Z" id="矩形备份-13" fill="#D4E3F8" mask="url(#mask-31)"></path>
                            <g id="编组-4" mask="url(#mask-31)" stroke="#C1CFE4" stroke-width="0.5">
                                <g transform="translate(25.277341, 7.301935)">
                                    <path d="M16.362955,0.263184746 C17.9376501,2.3815347 21.0537128,6.0186363 25.7104593,11.1737144 C18.3756719,11.9163601 13.031418,12.4359771 9.67765731,12.732346 C8.95872209,11.3476985 7.08986092,9.32968852 5.15462627,7.24984576 L4.46043225,6.50271379 C2.83313418,4.74631199 1.25476706,2.99382584 0.409841756,1.59226509 C2.25335138,1.41924419 4.62530174,1.22838891 7.05170484,1.03663349 L8.26724973,0.94075917 C11.3146049,0.700637966 14.3234469,0.463525166 16.362955,0.263184746 Z" id="路径-7"></path>
                                    <path d="M8.01991648,0.859068523 C9.78274258,3.71926833 15.7957371,9.20283171 17.289479,12.1320559" id="路径-7备份"></path>
                                    <line x1="4.77573708" y1="6.97917239" x2="20.2757371" y2="5.47019036" id="路径-5"></line>
                                </g>
                            </g>
                            <path d="M37.1762575,0 C37.1778331,0.00739697076 37.1794131,0.0147913842 37.1809975,0.0221832452 L0.302060087,2.70747138 C2.1129808,10.0427137 5.68847112,15.2032632 11.3551378,22.0775147 C19.8429368,32.374091 24.0929281,41.6675651 22.3626366,50.7091838 L22.0530777,50.7481734 C23.8030777,41.6942812 19.5530777,32.388892 11.0530777,22.0775147 C5.38641103,15.2032632 1.81092072,10.0427137 0,2.70747138 Z" id="形状结合" fill="url(#linearGradient-32)" mask="url(#mask-31)"></path>
                            <path d="M8.81039337,6.65202165 C9.90796469,9.08718981 12.5534726,13.2738127 16.350485,17.3044586 C17.8297764,18.8747721 19.1203227,20.3720401 20.1861726,21.704817" id="路径-8" stroke="#C1CFE4" stroke-width="0.5" mask="url(#mask-31)"></path>
                            <path d="M18.3134906,9.77639247 C19.8317971,12.2691315 23.2011218,15.9040076 27.0273523,19.5625447 C29.0501821,21.4967193 31.1337878,23.4184794 32.3214736,25.2331174" id="路径-8备份" stroke="#C1CFE4" stroke-width="0.5" stroke-dasharray="1,1" mask="url(#mask-31)"></path>
                            <ellipse id="椭圆形" fill="#8592AD" mask="url(#mask-31)" transform="translate(44.286198, 15.676231) rotate(20.000000) translate(-44.286198, -15.676231) " cx="44.286198" cy="15.6762312" rx="1.12578897" ry="1"></ellipse>
                            <path d="M32.2658258,25.8889237 C32.8875813,25.8901163 33.3909676,25.5535237 33.3901713,25.1371199 C33.3893732,24.7207162 32.8846945,24.3821849 32.262939,24.380986 C31.6411834,24.3797935 31.1377972,24.716386 31.1385934,25.1327898 C31.1393915,25.5491935 31.6440702,25.8877248 32.2658258,25.8889237 Z" id="椭圆形备份" fill="#CDD5E4" mask="url(#mask-31)" transform="translate(32.264382, 25.134955) rotate(20.000000) translate(-32.264382, -25.134955) "></path>
                            <g id="开发元素" mask="url(#mask-31)">
                                <g transform="translate(11.580604, 3.406377)" id="编组-5"></g>
                            </g>
                            <path d="M30.5534872,30.5033703 C32.4524039,33.8285504 34.5667243,38.219973 34.9907583,42.9121488 C36.2120354,42.7492553 37.7515556,42.5493751 39.6093187,42.3125082 C39.5438574,41.5569518 39.4456159,40.8492232 39.3145942,40.1893226 C38.7176313,40.2680387 38.0169366,40.3608009 37.2125101,40.4676091 C36.6399805,37.6029838 35.5784899,34.7953507 34.0280382,32.0447096 C34.7415523,31.9598267 35.4284246,31.8782342 36.0886549,31.7999319 C35.6815745,31.0701834 35.3202392,30.4746107 35.004649,30.0132139 C34.4760546,30.0743124 32.324878,30.3154113 30.5534872,30.5033703 Z M41.5885372,29.2853357 C41.8199536,29.6456382 42.3235215,30.4821635 42.5538186,30.9931917 C42.9426202,30.9445471 43.9345572,30.8229098 44.4019706,30.7643468 C45.7322564,32.9417234 46.9415032,35.3091724 47.7867547,39.0255528 C47.0535667,39.1239603 46.4835622,39.2041243 45.8233343,39.2935333 C45.9564335,40.0049262 46.0656446,40.7445505 46.1502519,41.5017406 C47.9882367,41.2666337 49.8935944,41.0919061 50.8265209,40.9747118 C50.1955308,37.2342311 48.8517407,33.0656375 45.8233343,28.8075499 C45.0358217,28.8891303 42.2955779,29.2113012 41.5885372,29.2853357 Z" id="形状结合" fill="url(#linearGradient-33)" mask="url(#mask-31)"></path>
                        </g>
                    </g>
                    <rect id="矩形" fill="#7A9CFF" style="mix-blend-mode: color;" x="0" y="0" width="141" height="84"></rect>
                </g>
            </g>
        </g>
    </g>
</svg>