<?xml version="1.0" encoding="UTF-8"?>
<svg width="14px" height="12px" viewBox="0 0 14 12" version="1.1" xmlns="http://www.w3.org/2000/svg" xmlns:xlink="http://www.w3.org/1999/xlink">
    <title>General/box-icon/24px备份 2</title>
    <g id="全链路诊断" stroke="none" stroke-width="1" fill="none" fill-rule="evenodd">
        <g id="1.2-SQL诊断-SlowSQL详情页-交互说明" transform="translate(-174.000000, -408.000000)" fill="#85A5FF">
            <g id="编组-10备份-5" transform="translate(154.000000, 402.000000)">
                <g id="General/box-icon/24px备份-2" transform="translate(20.000000, 5.000000)">
                    <path d="M12.6875,1.9140625 L1.3125,1.9140625 C1.07050781,1.9140625 0.875,2.10957031 0.875,2.3515625 L0.875,9.1328125 C0.875,9.37480469 1.07050781,9.5703125 1.3125,9.5703125 L6.5078125,9.5703125 L6.5078125,11.1015625 L4.15625,11.1015625 C4.0359375,11.1015625 3.9375,11.2 3.9375,11.3203125 L3.9375,11.9765625 C3.9375,12.0367188 3.98671875,12.0859375 4.046875,12.0859375 L9.953125,12.0859375 C10.0132813,12.0859375 10.0625,12.0367188 10.0625,11.9765625 L10.0625,11.3203125 C10.0625,11.2 9.9640625,11.1015625 9.84375,11.1015625 L7.4921875,11.1015625 L7.4921875,9.5703125 L12.6875,9.5703125 C12.9294922,9.5703125 13.125,9.37480469 13.125,9.1328125 L13.125,2.3515625 C13.125,2.10957031 12.9294922,1.9140625 12.6875,1.9140625 Z" id="路径"></path>
                </g>
            </g>
        </g>
    </g>
</svg>