<?xml version="1.0" encoding="UTF-8"?>
<svg width="12px" height="2px" viewBox="0 0 12 2" version="1.1" xmlns="http://www.w3.org/2000/svg" xmlns:xlink="http://www.w3.org/1999/xlink">
    <defs>
        <path d="M3.09375,8.98242187 C3.09375,9.3341052 3.28137081,9.65907399 3.58593749,9.83491565 C3.89050418,10.0107573 4.26574582,10.0107573 4.57031251,9.83491565 C4.87487919,9.65907399 5.0625,9.3341052 5.0625,8.98242187 C5.0625,8.63073855 4.87487919,8.30576976 4.57031251,8.1299281 C4.26574582,7.95408644 3.89050418,7.95408644 3.58593749,8.1299281 C3.28137081,8.30576976 3.09375,8.63073855 3.09375,8.98242187 L3.09375,8.98242187 Z M8.015625,8.98242187 C8.015625,9.52607718 8.4563447,9.96679687 9,9.96679687 C9.5436553,9.96679687 9.984375,9.52607718 9.984375,8.98242187 C9.984375,8.43876657 9.5436553,7.99804687 9,7.99804687 C8.4563447,7.99804687 8.015625,8.43876657 8.015625,8.98242187 Z M12.9375,8.98242187 C12.9375,9.52607718 13.3782197,9.96679687 13.921875,9.96679687 C14.4655303,9.96679687 14.90625,9.52607718 14.90625,8.98242187 C14.90625,8.43876657 14.4655303,7.99804687 13.921875,7.99804687 C13.3782197,7.99804687 12.9375,8.43876657 12.9375,8.98242187 Z" id="path-1"></path>
    </defs>
    <g id="L1-系统管理&amp;个人设置" stroke="none" stroke-width="1" fill="none" fill-rule="evenodd">
        <g id="1.1.1-任务详情" transform="translate(-806.000000, -350.000000)">
            <g id="Group-8" transform="translate(526.000000, 175.000000)">
                <g id="Zone-2-Copy-4" transform="translate(132.000000, 134.000000)">
                    <g id="General/box-icon/16px" transform="translate(154.000000, 42.000000) rotate(-360.000000) translate(-154.000000, -42.000000) translate(145.000000, 33.000000)">
                        <g id="Icon/01-Line/more">
                            <mask id="mask-2" fill="white">
                                <use xlink:href="#path-1"></use>
                            </mask>
                            <use id="Shape" fill-opacity="0.45" fill="#000000" fill-rule="evenodd" xlink:href="#path-1"></use>
                        </g>
                    </g>
                </g>
            </g>
        </g>
    </g>
</svg>