<?xml version="1.0" encoding="UTF-8"?>
<svg width="15px" height="14px" viewBox="0 0 15 14" version="1.1" xmlns="http://www.w3.org/2000/svg" xmlns:xlink="http://www.w3.org/1999/xlink">
    <g id="L1-系统管理&amp;个人设置" stroke="none" stroke-width="1" fill="none" fill-rule="evenodd" fill-opacity="0.65">
        <g id="1.1.2-任务详情-打开日志" transform="translate(-1376.000000, -149.000000)" fill="#000000">
            <g id="Group" transform="translate(1223.000000, 136.000000)">
                <g id="General/icon/16px" transform="translate(152.500000, 12.000000)">
                    <g id="Icon/02-Line/adapt">
                        <path d="M8,10 C6.8954305,10 6,9.1045695 6,8 C6,6.8954305 6.8954305,6 8,6 C9.1045695,6 10,6.8954305 10,8 C10,9.1045695 9.1045695,10 8,10 Z M4.34375,4.375 L4.34375,1.625 C4.34375,1.48692881 4.45567881,1.375 4.59375,1.375 L5.34375,1.375 C5.48182119,1.375 5.59375,1.48692881 5.59375,1.625 L5.59375,5.125 C5.59375,5.40114237 5.36989237,5.625 5.09375,5.625 L1.625,5.625 C1.48692881,5.625 1.375,5.51307119 1.375,5.375 L1.375,4.625 C1.375,4.48692881 1.48692881,4.375 1.625,4.375 L4.34375,4.375 Z M11.65625,4.375 L14.375,4.375 C14.5130712,4.375 14.625,4.48692881 14.625,4.625 L14.625,5.375 C14.625,5.51307119 14.5130712,5.625 14.375,5.625 L10.90625,5.625 C10.6301076,5.625 10.40625,5.40114237 10.40625,5.125 L10.40625,1.625 C10.40625,1.48692881 10.5181788,1.375 10.65625,1.375 L11.40625,1.375 C11.5443212,1.375 11.65625,1.48692881 11.65625,1.625 L11.65625,4.375 Z M11.65625,11.625 L11.65625,14.375 C11.65625,14.5130712 11.5443212,14.625 11.40625,14.625 L10.65625,14.625 C10.5181788,14.625 10.40625,14.5130712 10.40625,14.375 L10.40625,10.875 C10.40625,10.5988576 10.6301076,10.375 10.90625,10.375 L14.375,10.375 C14.5130712,10.375 14.625,10.4869288 14.625,10.625 L14.625,11.375 C14.625,11.5130712 14.5130712,11.625 14.375,11.625 L11.65625,11.625 Z M4.34375,11.625 L1.625,11.625 C1.48692881,11.625 1.375,11.5130712 1.375,11.375 L1.375,10.625 C1.375,10.4869288 1.48692881,10.375 1.625,10.375 L5.09375,10.375 C5.36989237,10.375 5.59375,10.5988576 5.59375,10.875 L5.59375,14.375 C5.59375,14.5130712 5.48182119,14.625 5.34375,14.625 L4.59375,14.625 C4.45567881,14.625 4.34375,14.5130712 4.34375,14.375 L4.34375,11.625 Z" id="Shape"></path>
                    </g>
                </g>
            </g>
        </g>
    </g>
</svg>