<?xml version="1.0" encoding="UTF-8"?>
<svg width="14px" height="14px" viewBox="0 0 14 14" version="1.1" xmlns="http://www.w3.org/2000/svg" xmlns:xlink="http://www.w3.org/1999/xlink">
    <title>OBProxy</title>
    <g id="全链路诊断" stroke="none" stroke-width="1" fill="none" fill-rule="evenodd">
        <g id="1.2-SQL诊断-SlowSQL详情页-交互说明" transform="translate(-214.000000, -455.000000)">
            <g id="编组-10备份-5" transform="translate(154.000000, 402.000000)">
                <g id="OBProxy" transform="translate(60.000000, 53.000000)">
                    <rect id="矩形" fill="#000000" fill-rule="nonzero" opacity="0" x="0" y="0" width="14" height="14"></rect>
                    <path d="M12.5895715,9.70897571 C11.9582945,9.34108214 11.1888793,9.43978529 10.6704895,9.9004 L9.88325002,9.4412808 L9.88325002,7.17260383 C9.88325002,6.93780998 9.75847999,6.71946664 9.55647136,6.60281746 L7.53638507,5.43183918 L7.53638507,4.42835715 C8.19291311,4.2040318 8.66525682,3.57891185 8.66525682,2.84162922 C8.66525682,1.91591331 7.92109268,1.16666667 7.00165635,1.16666667 C6.08222001,1.16666667 5.33805587,1.91591331 5.33805587,2.84162922 C5.33805587,3.57891185 5.81039958,4.2040318 6.46692762,4.42835715 L6.46692762,5.43183918 L4.44684133,6.60281746 C4.2448327,6.71946664 4.12006267,6.93780998 4.12006267,7.17260383 L4.12006267,9.43978529 L3.33282316,9.8989045 C2.81443337,9.43828979 2.04353279,9.33958664 1.41374118,9.7074802 C0.619074885,10.1710859 0.348739808,11.1940095 0.804744581,11.9941032 C1.26223471,12.7941969 2.27376321,13.0693693 3.0654588,12.6072591 C3.69673576,12.2393656 3.99677799,11.5155425 3.86161045,10.8306024 L4.58497959,10.4073753 L6.67339232,11.6187321 C6.77439664,11.6770567 6.88728381,11.7069668 7.00017099,11.7069668 C7.11305816,11.7069668 7.22594534,11.6770567 7.32694965,11.6187321 L9.41387703,10.4088708 L10.1372462,10.8320979 C10.0020786,11.5155425 10.3036062,12.2408611 10.9333978,12.6087546 C11.7250934,13.0708648 12.7381073,12.7971879 13.194112,11.9955987 C13.6516022,11.1940095 13.3812671,10.1710859 12.5895715,9.70897571 Z" id="路径" fill="#36CFC9"></path>
                </g>
            </g>
        </g>
    </g>
</svg>