<?xml version="1.0" encoding="UTF-8"?>
<svg width="88px" height="82px" viewBox="0 0 88 82" version="1.1" xmlns="http://www.w3.org/2000/svg" xmlns:xlink="http://www.w3.org/1999/xlink">
    <defs>
        <polygon id="path-1" points="0.0496566201 0.0822353631 46.7007242 0.0822353631 46.7007242 46.7333799 0.0496566201 46.7333799"></polygon>
    </defs>
    <g id="L1-备份恢复-向导&amp;概览-短篇" stroke="none" stroke-width="1" fill="none" fill-rule="evenodd">
        <g id="1.1.4-概览-向导-安装服务-反馈" transform="translate(-676.000000, -474.000000)">
            <g id="Padding-Group-2" transform="translate(480.000000, 440.000000)">
                <g id="Backstage/Feedback/icon" transform="translate(35.000000, 24.000000)">
                    <g id="1.组合示例/3.功能区块示例/6.文件创建成功" transform="translate(161.000000, 10.000000)">
                        <g id="分组" transform="translate(0.968750, 0.757812)">
                            <path d="M25.1070852,33.4728699 C20.4868271,33.4728699 16.7413294,29.7273722 16.7413294,25.1071141 C16.7413294,20.486856 20.4868271,16.7413583 25.1070852,16.7413583 C29.7273433,16.7413583 33.472841,20.486856 33.472841,25.1071141 C33.472841,29.7273722 29.7273433,33.4728699 25.1070852,33.4728699 L25.1070852,33.4728699 Z M50.2141609,28.891364 L50.2141609,21.3227681 L44.24902,19.8071065 C43.8115917,18.2233642 43.1829989,16.7191455 42.3893968,15.320702 L45.5363034,10.0296372 L40.1845621,4.67779978 L34.8934973,7.8248025 C33.4949577,7.03110432 31.990739,6.40260767 30.4070929,5.96508323 L28.8913351,3.84636871e-05 L21.3227392,3.84636871e-05 L19.8070776,5.96508323 C18.2233353,6.40260767 16.7191167,7.03110432 15.3206732,7.8248025 L10.0296084,4.67779978 L4.67777093,10.0296372 L7.82467749,15.320702 C7.03117163,16.7191455 6.40257882,18.2234603 5.96505438,19.8071065 L9.61592179e-06,21.3227681 L9.61592179e-06,28.891364 L5.96505438,30.4071217 C6.40257882,31.9907679 7.03117163,33.4949865 7.82467749,34.8935262 L4.67777093,40.184591 L10.0296084,45.5364284 L15.3206732,42.3894257 C16.7191167,43.1830277 18.2233353,43.8116205 19.8070776,44.249145 L21.3227392,50.2141897 L28.8913351,50.2141897 L30.4070929,44.249145 C31.990739,43.8116205 33.4949577,43.1830277 34.8934973,42.3894257 L40.1845621,45.5364284 L45.5363034,40.184591 L42.3893968,34.8935262 C43.1829989,33.4949865 43.8115917,31.9907679 44.24902,30.4071217 L50.2141609,28.891364 Z" id="Fill-1" fill="#597EF7"></path>
                            <g transform="translate(39.329120, 33.483505)">
                                <mask id="mask-2" fill="white">
                                    <use xlink:href="#path-1"></use>
                                </mask>
                                <g id="Clip-4"></g>
                                <path d="M23.3751904,31.1799341 C19.0827391,31.1799341 15.6030255,27.7002205 15.6030255,23.4077692 C15.6030255,19.1153178 19.0827391,15.6356042 23.3751904,15.6356042 C27.6676417,15.6356042 31.1473554,19.1153178 31.1473554,23.4077692 C31.1473554,27.7002205 27.6676417,31.1799341 23.3751904,31.1799341 L23.3751904,31.1799341 Z M46.7007242,26.9235425 L46.7007242,19.8919958 L41.1589723,18.4838403 C40.7525073,17.0125081 40.1686285,15.6150261 39.4312797,14.315819 L42.3549045,9.40015973 L37.3827998,4.42805506 L32.4672368,7.35177608 C31.1679334,6.61442719 29.7704515,6.03045226 28.2991193,5.62398725 L26.8909637,0.0822353631 L19.8593209,0.0822353631 L18.4512615,5.62398725 C16.9799293,6.03045226 15.5824474,6.61442719 14.2831441,7.35177608 L9.36758099,4.42805506 L4.39547631,9.40015973 L7.31910117,14.315819 C6.58175229,15.6150261 5.99787352,17.0125081 5.59140851,18.4838403 L0.0496566201,19.8919958 L0.0496566201,26.9235425 L5.59140851,28.3317942 C5.99787352,29.8031264 6.58175229,31.2005122 7.31910117,32.4998155 L4.39547631,37.4154747 L9.36758099,42.3874833 L14.2831441,39.4638584 C15.5824474,40.2011111 16.9799293,40.7850861 18.4512615,41.1915511 L19.8593209,46.7333991 L26.8909637,46.7333991 L28.2991193,41.1915511 C29.7704515,40.7850861 31.1679334,40.2011111 32.4672368,39.4638584 L37.3827998,42.3874833 L42.3549045,37.4154747 L39.4312797,32.4998155 C40.1686285,31.2005122 40.7525073,29.8031264 41.1589723,28.3317942 L46.7007242,26.9235425 Z" id="Fill-3" fill="#253369" mask="url(#mask-2)"></path>
                            </g>
                            <path d="M65.2207396,22.8447377 L56.0019553,21.0650229 L65.7542309,10.0056551 C64.8848554,9.86651271 63.9934595,9.79314323 63.084851,9.79314323 C53.8305841,9.79314323 46.3285303,17.2951969 46.3285303,26.5494639 C46.3285303,35.8037309 53.8305841,43.3057846 63.084851,43.3057846 C72.339118,43.3057846 79.8411717,35.8037309 79.8411717,26.5494639 C79.8411717,25.8979852 79.802708,25.2557378 79.7303963,24.6236832 L65.2207396,22.8447377 Z" id="Fill-5" fill="#A3B5D6"></path>
                            <path d="M65.2207203,22.8447185 L47.8819633,19.4975123 C46.8857538,21.6410935 46.3285111,24.029977 46.3285111,26.5494447 C46.3285111,28.8176483 46.780171,30.9800768 47.5968512,32.9531678 L10.4110239,67.4499987 C8.14387802,74.591263 14.984164,81.2650974 22.0673481,78.8226533 L22.5615103,78.6522591 L56.8036155,42.087428 C58.7435316,42.8724719 60.8634577,43.3057653 63.0848318,43.3057653 C72.3390988,43.3057653 79.8411525,35.8037116 79.8411525,26.5494447 C79.8411525,21.5231062 77.6274711,17.0142005 74.1224676,13.9429712 L65.2207203,22.8447185 Z" id="Fill-7" fill="#CCD7EE"></path>
                            <polygon id="Fill-9" fill="#A3B5D6" points="47.5643975 45.5804789 43.9185207 41.9346022 47.5643975 38.2887255 51.2102742 41.9346022"></polygon>
                        </g>
                    </g>
                </g>
            </g>
        </g>
    </g>
</svg>