<?xml version="1.0" encoding="UTF-8"?>
<svg width="71px" height="78px" viewBox="0 0 71 78" version="1.1" xmlns="http://www.w3.org/2000/svg" xmlns:xlink="http://www.w3.org/1999/xlink">
    <defs>
        <polygon id="path-1" points="0 0 28.7306819 0 28.7306819 28.7306787 0 28.7306787"></polygon>
    </defs>
    <g id="L1-备份恢复-向导&amp;概览-短篇" stroke="none" stroke-width="1" fill="none" fill-rule="evenodd">
        <g id="1.2.2-概览-向导-创建备份策略-创建成功" transform="translate(-685.000000, -262.000000)">
            <g id="Group-2" transform="translate(425.000000, 228.000000)">
                <g id="Padding-Group-2">
                    <g id="Backstage/Feedback/icon" transform="translate(90.000000, 24.000000)">
                        <g id="1.组合示例/3.功能区块示例/6.文件创建成功" transform="translate(170.000000, 10.000000)">
                            <g id="编组" transform="translate(0.061249, 0.774006)">
                                <g id="资源-22" transform="translate(0.000000, 14.392726)">
                                    <polygon id="矩形" stroke="#707070" stroke-width="0.700310372" transform="translate(21.360046, 59.423497) rotate(-57.590000) translate(-21.360046, -59.423497) " points="20.4888731 58.5594075 22.2462858 58.5443403 22.2312185 60.2875855 20.4738059 60.3026528"></polygon>
                                    <polyline id="路径" fill="#C1C1C1" fill-rule="nonzero" points="39.4516283 4.66225847 39.4516283 15.8995996 50.4779877 15.8995996"></polyline>
                                    <path d="M50.2208842,0.0801350717 L16.9043587,0.0801350717 C15.8621984,0.0801350717 15.0173605,0.941199719 15.0173605,2.00337679 L15.0173605,54.4918487 C15.0173605,55.5540258 15.8621984,56.4150904 16.9043587,56.4150904 L58.3396939,56.4150904 C59.3818542,56.4150904 60.226692,55.5540258 60.226692,54.4918487 L60.226692,10.3566567 L50.2208842,0.0801350717 Z" id="路径" fill="#A3B5D6" fill-rule="nonzero"></path>
                                    <path d="M50.2208842,0 L50.2366091,8.43742169 C50.2366091,9.49959877 51.081447,10.3606634 52.1236073,10.3606634 L60.226692,10.3606634" id="路径" fill="#393D65" fill-rule="nonzero"></path>
                                    <path d="M35.1272574,5.22320397 L1.88699818,5.22320397 C0.844837864,5.22320397 0,6.08426862 0,7.14644569 L0,59.6349176 C0,60.6970947 0.844837864,61.5581593 1.88699818,61.5581593 L43.4009582,61.5581593 C44.4431185,61.5581593 45.2879564,60.6970947 45.2879564,59.6349176 L45.2879564,16.4605451 L38.0363796,16.4605451 C36.9945994,16.4605451 35.1272574,15.5998944 35.1272574,14.5373033 L35.1272574,5.22320397 Z" id="路径" fill="#E4EBF7" fill-rule="nonzero"></path>
                                    <rect id="矩形" fill="#393D65" fill-rule="nonzero" x="4.95258398" y="10.3462391" width="10.0639903" height="10.2572892" rx="1.26384995"></rect>
                                    <rect id="矩形" fill="#A3B5D6" fill-rule="nonzero" x="4.95258398" y="25.7321729" width="35.2239661" height="2.56432229" rx="0.458935512"></rect>
                                    <rect id="矩形" fill="#A3B5D6" fill-rule="nonzero" x="4.95258398" y="33.4163249" width="35.2239661" height="2.56432229" rx="0.458935512"></rect>
                                    <rect id="矩形" fill="#A3B5D6" fill-rule="nonzero" x="4.95258398" y="41.1092918" width="35.2239661" height="2.56432229" rx="0.458935512"></rect>
                                    <path d="M35.1272574,5.22320397 L35.1272574,14.5373033 C35.1272574,15.5994804 35.9720953,16.4605451 37.0142556,16.4605451 L45.2879564,16.4605451" id="路径" fill="#FFFFFF" fill-rule="nonzero"></path>
                                </g>
                                <g id="分组" transform="translate(39.981537, 0.000000)">
                                    <g transform="translate(0.021947, 0.000000)">
                                        <mask id="mask-2" fill="white">
                                            <use xlink:href="#path-1"></use>
                                        </mask>
                                        <g id="Clip-2"></g>
                                        <path d="M14.365341,-3.20654933e-06 C6.43156837,-3.20654933e-06 0,6.43156517 0,14.3653378 C0,22.2990783 6.43156837,28.7306787 14.365341,28.7306787 C22.2991136,28.7306787 28.7306819,22.2990783 28.7306819,14.3653378 C28.7306819,6.43156517 22.2991136,-3.20654933e-06 14.365341,-3.20654933e-06" id="Fill-1" fill="#8BBC06" mask="url(#mask-2)"></path>
                                    </g>
                                    <path d="M12.0941232,19.3274776 L11.19499,18.4207976 L19.9078782,9.60272302 C20.205809,9.30225947 20.6888817,9.30225947 20.9868444,9.60272302 L21.3465104,9.96537576 C21.6444412,10.2658393 21.6444412,10.7529666 21.3465104,11.0534301 L13.1730894,19.3274776 C12.8751586,19.6279411 12.3920859,19.6279411 12.0941232,19.3274776" id="Fill-3" fill="#FFFFFF"></path>
                                    <path d="M13.9882508,18.4054389 L13.0884724,19.3244202 C12.790296,19.6289602 12.3068767,19.6289602 12.0087321,19.3244202 L8.42584299,15.6650657 C8.12766655,15.3605582 8.12766655,14.8668218 8.42584299,14.5622818 L8.78573523,14.1947088 C9.08391167,13.8901687 9.56733097,13.8901687 9.86550741,14.1947088 L13.9882508,18.4054389 Z" id="Fill-5" fill="#FFFFFF"></path>
                                </g>
                            </g>
                        </g>
                    </g>
                </g>
            </g>
        </g>
    </g>
</svg>