<?xml version="1.0" encoding="UTF-8"?>
<svg width="114px" height="108px" viewBox="0 0 114 108" version="1.1" xmlns="http://www.w3.org/2000/svg" xmlns:xlink="http://www.w3.org/1999/xlink">
    <defs>
        <polygon id="path-1" points="0 0.0759075606 86.835454 0.0759075606 86.835454 10.8063239 0 10.8063239"></polygon>
        <polygon id="path-3" points="0 0.0687202999 86.835454 0.0687202999 86.835454 75.1510068 0 75.1510068"></polygon>
        <polygon id="path-5" points="4.5880202e-06 0 41.1086609 0 41.1086609 41.1086563 4.5880202e-06 41.1086563"></polygon>
        <polygon id="path-7" points="1.64253649e-05 0.0263716152 6.46065997 0.0263716152 6.46065997 6.96777747 1.64253649e-05 6.96777747"></polygon>
    </defs>
    <g id="OCP-2.5-主机-&amp;-OCP-Agent" stroke="none" stroke-width="1" fill="none" fill-rule="evenodd">
        <g id="3.2.3-主机详情-OCP-Agent-状态异常" transform="translate(-767.000000, -386.000000)">
            <g id="编组-2" transform="translate(619.000000, 366.000000)">
                <g id="编组" transform="translate(131.000000, 0.000000)">
                    <g id="编组-2" transform="translate(17.659354, 20.843828)">
                        <path d="M3.98751494,35.6082063 C1.79438172,35.6082063 0,33.8138246 0,31.6206914 L0,14.1199314 C0,11.9267981 1.79438172,10.1324164 3.98751494,10.1324164 L21.4882749,10.1324164 C23.6814082,10.1324164 25.4757899,11.9267981 25.4757899,14.1199314 L25.4757899,31.6206914 C25.4757899,33.8138246 23.6814082,35.6082063 21.4882749,35.6082063 L3.98751494,35.6082063 Z" id="Fill-7备份-4" fill="#ADC6FF" opacity="0.209519159"></path>
                        <g id="编组-3备份" transform="translate(11.869402, 0.000000)">
                            <g id="编组" transform="translate(0.000000, 17.080359)">
                                <g id="分组-copy-3">
                                    <g id="分组" transform="translate(0.000000, 0.050185)">
                                        <mask id="mask-2" fill="white">
                                            <use xlink:href="#path-1"></use>
                                        </mask>
                                        <g id="Clip-2"></g>
                                        <path d="M86.835454,10.8063239 L-7.64069944e-05,10.8063239 L-7.64069944e-05,3.10208477 C-7.64069944e-05,1.43085752 1.36837286,0.0758697329 3.05620337,0.0758697329 L83.7791742,0.0758697329 C85.4671321,0.0758697329 86.835454,1.43085752 86.835454,3.10208477 L86.835454,10.8063239 Z" id="Fill-1" fill="#393D65" mask="url(#mask-2)"></path>
                                    </g>
                                    <g id="分组" transform="translate(0.000000, 9.885384)">
                                        <mask id="mask-4" fill="white">
                                            <use xlink:href="#path-3"></use>
                                        </mask>
                                        <g id="Clip-4"></g>
                                        <path d="M83.7791742,75.1510068 L3.05620337,75.1510068 C1.36837286,75.1510068 -7.64069944e-05,73.7961451 -7.64069944e-05,72.1247918 L-7.64069944e-05,0.0687202999 L86.835454,0.0687202999 L86.835454,72.1247918 C86.835454,73.7961451 85.4671321,75.1510068 83.7791742,75.1510068" id="Fill-3" fill="#ADC6FF" mask="url(#mask-4)"></path>
                                    </g>
                                    <path d="M7.05679719,5.119738 C7.05679719,6.16857369 6.19798257,7.01894012 5.1385996,7.01894012 C4.07934396,7.01894012 3.22065669,6.16857369 3.22065669,5.119738 C3.22065669,4.0709023 4.07934396,3.22053587 5.1385996,3.22053587 C6.19798257,3.22053587 7.05679719,4.0709023 7.05679719,5.119738" id="Fill-5" fill="#FF7A46"></path>
                                    <path d="M14.2198256,5.119738 C14.2198256,6.16857369 13.3611383,7.01894012 12.3017553,7.01894012 C11.2424997,7.01894012 10.3838124,6.16857369 10.3838124,5.119738 C10.3838124,4.0709023 11.2424997,3.22053587 12.3017553,3.22053587 C13.3611383,3.22053587 14.2198256,4.0709023 14.2198256,5.119738" id="Fill-7" fill="#FFC53D"></path>
                                    <path d="M21.3829813,5.119738 C21.3829813,6.16857369 20.524294,7.01894012 19.4649111,7.01894012 C18.4056554,7.01894012 17.5469681,6.16857369 17.5469681,5.119738 C17.5469681,4.0709023 18.4056554,3.22053587 19.4649111,3.22053587 C20.524294,3.22053587 21.3829813,4.0709023 21.3829813,5.119738" id="Fill-9" fill="#BAE637"></path>
                                    <path d="M9.38531396,74.8235577 C8.85852082,74.8235577 8.43162645,74.4010789 8.43162645,73.879998 L8.43162645,19.1804268 C8.43162645,18.6593459 8.85852082,18.2368671 9.38531396,18.2368671 L78.3989112,18.2368671 C78.9255851,18.2368671 79.3525987,18.6593459 79.3525987,19.1804268 L79.3525987,73.879998 C79.3525987,74.4010789 78.9255851,74.8235577 78.3989112,74.8235577 L9.38531396,74.8235577 Z" id="Fill-11" fill="#FFFFFF"></path>
                                    <path d="M33.0332269,25.397825 L15.5630223,25.397825 C14.8477255,25.397825 14.2627026,24.8184309 14.2627026,24.1102965 C14.2627026,23.4020361 14.8477255,22.8227681 15.5630223,22.8227681 L33.0332269,22.8227681 C33.7483964,22.8227681 34.3335466,23.4020361 34.3335466,24.1102965 C34.3335466,24.8184309 33.7483964,25.397825 33.0332269,25.397825" id="Fill-1" fill="#ADC6FF"></path>
                                    <path d="M22.9324387,31.4702659 L16.4305856,31.4702659 C15.7124871,31.4702659 15.1301385,30.8937719 15.1301385,30.1827375 C15.1301385,29.4715769 15.7124871,28.8952091 16.4305856,28.8952091 L22.9324387,28.8952091 C23.6506645,28.8952091 24.2327584,29.4715769 24.2327584,30.1827375 C24.2327584,30.8937719 23.6506645,31.4702659 22.9324387,31.4702659" id="Fill-3" fill="#ADC6FF"></path>
                                </g>
                                <g id="分组" transform="translate(25.723688, 28.118581)">
                                    <path d="M18.849437,24.8030702 C16.8044953,24.8030702 15.1430463,23.1558816 15.1430463,21.1186743 C15.1359341,19.0946164 16.7922466,17.4481321 18.8424208,17.4412052 C18.8447992,17.4412052 18.8470586,17.4410878 18.849437,17.4410878 C20.8931896,17.4410878 22.5546155,19.0882765 22.5546155,21.1244271 C22.5511669,23.1558816 20.8931896,24.8018962 18.849437,24.8030702 M28.0712966,19.8373188 C27.9992313,19.435912 27.6100074,19.0252301 27.2033023,18.9369418 L26.9000573,18.8680252 C26.1638259,18.6476565 25.5405682,18.158196 25.1572903,17.4996728 C24.770088,16.8343401 24.6553306,16.047963 24.8365641,15.3018558 L24.9318187,15.0196148 C25.0538302,14.6285396 24.895905,14.0881255 24.5786274,13.8209123 C24.5786274,13.8209123 24.2940528,13.5823458 23.4946751,13.123528 C22.6917299,12.6670584 22.3478143,12.5396742 22.3478143,12.5396742 C21.9574012,12.3973796 21.4113223,12.5339214 21.1255585,12.8344775 L20.9153086,13.0581336 C20.3595972,13.5829328 19.6195605,13.8744488 18.8506262,13.8715137 C18.0774109,13.8735096 17.3335687,13.5795281 16.7754789,13.0512067 L16.5733155,12.8333035 C16.2921896,12.5327473 15.7425431,12.3997277 15.3510597,12.5396742 C15.3510597,12.5396742 15.0025063,12.6670584 14.2007503,13.123528 C13.3979239,13.5857505 13.1156088,13.824317 13.1156088,13.824317 C12.7995204,14.0892995 12.6414762,14.6239608 12.7634878,15.0196148 L12.8506558,15.305378 C13.0298677,16.0503111 12.9152292,16.8349271 12.5299296,17.4996728 C12.1473652,18.1635967 11.5188751,18.6554052 10.7766977,18.8715473 L10.4851068,18.9369418 C10.085418,19.0286349 9.69155621,19.4336813 9.61711253,19.8373188 C9.61711253,19.8373188 9.5508743,20.1998647 9.5508743,21.1198483 C9.5508743,22.039832 9.61711253,22.4010864 9.61711253,22.4010864 C9.68917782,22.8071894 10.0784017,23.2131751 10.4851068,23.3015809 L10.7698004,23.3669753 C11.5134047,23.5837045 12.1430841,24.0769218 12.5252918,24.7434286 C12.9249806,25.4351774 13.0214244,26.2220241 12.846018,26.9412456 L12.7634878,27.2199645 C12.6414762,27.6111571 12.7995204,28.1514538 13.116679,28.418667 C13.116679,28.418667 13.4013726,28.6572335 14.2007503,29.1160512 C15.0035766,29.5749864 15.3486813,29.6999051 15.3486813,29.6999051 C15.7379052,29.8421996 16.2851733,29.7056579 16.5710561,29.4051017 L16.770841,29.1917773 C17.9326857,28.0940429 19.76381,28.0952169 20.9245843,29.194008 L21.1243693,29.4086239 C21.4056142,29.7078886 21.9551417,29.8421996 22.346744,29.7022532 C22.346744,29.7022532 22.6952974,29.5749864 23.4981238,29.1183993 C24.2997609,28.6595816 24.5810058,28.4208977 24.5810058,28.4208977 C24.8981644,28.1570892 25.0562086,27.618084 24.9341971,27.2221952 L24.847029,26.9332621 C24.6671036,26.190677 24.781861,25.4084092 25.1677552,24.7468334 C25.5522223,24.0825573 26.1808314,23.5896921 26.9233655,23.37038 L27.2091294,23.3049856 C27.6088182,23.2131751 28.00268,22.8083635 28.0771236,22.4044911 C28.0771236,22.4044911 28.1432429,22.0420627 28.1432429,21.1232531 C28.1363456,20.2022128 28.0712966,19.8373188 28.0712966,19.8373188" id="Fill-1" fill="#597EF7"></path>
                                    <path d="M11.1033101,4.01076759 C4.56065886,6.89836526 0,13.392084 0,20.9399269 C0,31.1721047 8.38119987,39.4668878 18.7197136,39.4668878 C29.0583461,39.4668878 37.4394273,31.1721047 37.4394273,20.9399269 C37.4394273,10.707749 29.0583461,2.4129659 18.7197136,2.4129659 L22.4063026,0" id="Stroke-7" stroke="#FF7A46" stroke-width="2.52664715" stroke-linecap="round" stroke-linejoin="round"></path>
                                    <line x1="21.9033384" y1="5.54806091" x2="18.7197136" y2="2.39575357" id="Stroke-9" stroke="#FF7A46" stroke-width="2.52664715" stroke-linecap="round" stroke-linejoin="round"></line>
                                    <path d="M48.9004764,40.2234416 C48.9004764,42.0340895 47.4180505,43.5018412 45.5895663,43.5018412 C43.7609629,43.5018412 42.2785369,42.0340895 42.2785369,40.2234416 C42.2785369,38.4127936 43.7609629,36.9450419 45.5895663,36.9450419 C47.4180505,36.9450419 48.9004764,38.4127936 48.9004764,40.2234416 Z" id="Stroke-11" stroke="#ADC6FF" stroke-width="1.27939417" stroke-linecap="round" stroke-linejoin="round"></path>
                                    <path d="M48.5184415,38.8364263 C48.6819386,39.256376 48.7731314,39.723106 48.7731314,40.2150163 C48.7731314,40.6167073 48.7123024,41.0019296 48.6009009,41.3582722" id="Stroke-13" stroke="#597EF7" stroke-width="1.27939417" stroke-linecap="round" stroke-linejoin="round"></path>
                                </g>
                            </g>
                            <g id="分组" transform="translate(60.215503, 0.000000)">
                                <g>
                                    <mask id="mask-6" fill="white">
                                        <use xlink:href="#path-5"></use>
                                    </mask>
                                    <g id="Clip-2"></g>
                                    <path d="M20.5543351,-4.5880202e-06 C9.20247197,-4.5880202e-06 4.5880202e-06,9.2024628 4.5880202e-06,20.5543259 C4.5880202e-06,31.9061431 9.20247197,41.1086563 20.5543351,41.1086563 C31.9061981,41.1086563 41.1086655,31.9061431 41.1086655,20.5543259 C41.1086655,9.2024628 31.9061981,-4.5880202e-06 20.5543351,-4.5880202e-06" id="Fill-1" fill="#FFC540" mask="url(#mask-6)"></path>
                                </g>
                                <path d="M21.0247641,26.0547851 L20.3733945,26.0547851 C19.8337754,26.0547851 19.39634,25.5510716 19.39634,24.9296921 L19.39634,10.6785142 C19.39634,10.0571347 19.8337754,9.5534212 20.3733945,9.5534212 L21.0247641,9.5534212 C21.5643831,9.5534212 22.0018185,10.0571347 22.0018185,10.6785142 L22.0018185,24.9296921 C22.0018185,25.5510716 21.5643831,26.0547851 21.0247641,26.0547851" id="Fill-3" fill="#FFFFFF"></path>
                                <path d="M21.0247641,31.5552397 L20.3733945,31.5552397 C19.8337754,31.5552397 19.39634,31.1178043 19.39634,30.5781853 L19.39634,29.9268157 C19.39634,29.3871966 19.8337754,28.9497612 20.3733945,28.9497612 L21.0247641,28.9497612 C21.5643831,28.9497612 22.0018185,29.3871966 22.0018185,29.9268157 L22.0018185,30.5781853 C22.0018185,31.1178043 21.5643831,31.5552397 21.0247641,31.5552397" id="Fill-5" fill="#FFFFFF"></path>
                            </g>
                        </g>
                        <path d="M106.971487,106.628925 C106.413025,106.628925 105.956126,106.175564 105.956126,105.621548 L105.956126,101.173606 C105.956126,100.619534 106.413025,100.166174 106.971487,100.166174 L111.401354,100.166174 C111.959816,100.166174 112.41677,100.619534 112.41677,101.173606 L112.41677,105.621548 C112.41677,106.175564 111.959816,106.628925 111.401354,106.628925 L106.971487,106.628925 Z" id="Fill-5备份-3" fill="#FF7A46"></path>
                        <g id="分组备份-4" transform="translate(6.368947, 39.371675)">
                            <mask id="mask-8" fill="white">
                                <use xlink:href="#path-7"></use>
                            </mask>
                            <g id="Clip-4"></g>
                            <path d="M5.44524391,6.96777747 L1.01537774,6.96777747 C0.456915327,6.96777747 1.64253649e-05,6.4808361 1.64253649e-05,5.88578277 L1.64253649e-05,1.10837798 C1.64253649e-05,0.513266312 0.456915327,0.0263249397 1.01537774,0.0263249397 L5.44524391,0.0263249397 C6.00370632,0.0263249397 6.46065997,0.513266312 6.46065997,1.10837798 L6.46065997,5.88578277 C6.46065997,6.4808361 6.00370632,6.96777747 5.44524391,6.96777747" id="Fill-3" fill="#FFC540" mask="url(#mask-8)"></path>
                        </g>
                    </g>
                </g>
            </g>
        </g>
    </g>
</svg>