<?xml version="1.0" encoding="UTF-8"?>
<svg width="53px" height="50px" viewBox="0 0 53 50" version="1.1" xmlns="http://www.w3.org/2000/svg" xmlns:xlink="http://www.w3.org/1999/xlink">
    <title>Business components 业务组件/03-Chart display 图表展示/01-Topological graph 拓扑图/02-集群运行中</title>
    <defs>
        <path d="M9.649462,0.192076408 L17.0510398,4.46063651 C17.2574636,4.57968307 17.3846507,4.79985539 17.3846507,5.03814695 L17.3846507,13.5739854 C17.3846507,13.812277 17.2574636,14.0324493 17.0510398,14.1514958 L9.649462,18.4200559 C9.44333575,18.5389309 9.18947675,18.5389309 8.9833505,18.4200559 L1.58177268,14.1514958 C1.37534889,14.0324493 1.24816177,13.812277 1.24816177,13.5739854 L1.24816177,5.03814695 C1.24816177,4.79985539 1.37534889,4.57968307 1.58177268,4.46063651 L8.9833505,0.192076408 C9.18947675,0.0732014442 9.44333575,0.0732014442 9.649462,0.192076408 Z" id="path-1"></path>
        <path d="M9.649462,0.192076408 L17.0510398,4.46063651 C17.2574636,4.57968307 17.3846507,4.79985539 17.3846507,5.03814695 L17.3846507,13.5739854 C17.3846507,13.812277 17.2574636,14.0324493 17.0510398,14.1514958 L9.649462,18.4200559 C9.44333575,18.5389309 9.18947675,18.5389309 8.9833505,18.4200559 L1.58177268,14.1514958 C1.37534889,14.0324493 1.24816177,13.812277 1.24816177,13.5739854 L1.24816177,5.03814695 C1.24816177,4.79985539 1.37534889,4.57968307 1.58177268,4.46063651 L8.9833505,0.192076408 C9.18947675,0.0732014442 9.44333575,0.0732014442 9.649462,0.192076408 Z" id="path-3"></path>
        <path d="M9.649462,0.192076408 L17.0510398,4.46063651 C17.2574636,4.57968307 17.3846507,4.79985539 17.3846507,5.03814695 L17.3846507,13.5739854 C17.3846507,13.812277 17.2574636,14.0324493 17.0510398,14.1514958 L9.649462,18.4200559 C9.44333575,18.5389309 9.18947675,18.5389309 8.9833505,18.4200559 L1.58177268,14.1514958 C1.37534889,14.0324493 1.24816177,13.812277 1.24816177,13.5739854 L1.24816177,5.03814695 C1.24816177,4.79985539 1.37534889,4.57968307 1.58177268,4.46063651 L8.9833505,0.192076408 C9.18947675,0.0732014442 9.44333575,0.0732014442 9.649462,0.192076408 Z" id="path-5"></path>
    </defs>
    <g id="页面-1" stroke="none" stroke-width="1" fill="none" fill-rule="evenodd">
        <g id="2.4.2-部署安装-预检查-确认信息-拓扑图" transform="translate(-614, -788)">
            <g id="编组" transform="translate(360, 314)">
                <g transform="translate(242, 474)" id="Business-components-业务组件/03-Chart-display-图表展示/01-Topological-graph-拓扑图/02-集群运行中">
                    <g transform="translate(12, 0)">
                        <g id="编组" transform="translate(0, 0.4825)">
                            <path d="M27.8335638,18.9456624 L50.1343235,31.824131 L52.1737011,31.8244485 L52.1737011,33.4788603 L51.6673492,33.4785487 C51.6676142,33.7052989 51.6099806,33.9351558 51.4884282,34.1456422 C51.3714287,34.3482446 51.2031786,34.5164948 51.0005761,34.6334943 L27.8335638,48.0120582 C27.0083771,48.4885898 25.9916229,48.4885898 25.1664362,48.0120582 L1.99942386,34.6334943 C1.57213667,34.386743 1.33309151,33.9391989 1.33265054,33.4788911 L0.826866482,33.4788603 L0.826866482,31.8244485 L2.86532345,31.824131 L25.1664362,18.9456624 C25.9916229,18.4691308 27.0083771,18.4691308 27.8335638,18.9456624 Z" id="Combined-Shape" fill="#8B9BCC"></path>
                            <path d="M1.99942386,30.6698145 L25.1664362,17.2912506 C25.9916229,16.814719 27.0083771,16.814719 27.8335638,17.2912506 L51.0005761,30.6698145 C51.6382629,31.038068 51.8566817,31.8535437 51.4884282,32.4912304 C51.3714287,32.6938329 51.2031786,32.862083 51.0005761,32.9790825 L27.8335638,46.3576464 C27.0083771,46.834178 25.9916229,46.834178 25.1664362,46.3576464 L1.99942386,32.9790825 C1.36173712,32.610829 1.1433183,31.7953534 1.51157178,31.1576666 C1.62857132,30.9550642 1.79682142,30.7868141 1.99942386,30.6698145 Z" id="Path-2-Copy" fill="#E1E7FA"></path>
                            <g id="Z#/icon/集群" transform="translate(6.625, 0)">
                                <g id="Group" transform="translate(0, 0.3518)">
                                    <path d="M21.2724609,9.77136949 L21.2723761,20.1323695 L30.2556239,25.3133951 L28.8581629,27.7311821 L19.8743761,22.5503695 L10.8918371,27.7311821 L9.49437615,25.3133951 L18.4773761,20.1323695 L18.4775391,9.77136949 L21.2724609,9.77136949 Z" id="Combined-Shape" fill="#404E7A"></path>
                                    <g id="Group-Copy" transform="translate(21.1172, 17.4489)">
                                        <mask id="mask-2" fill="white">
                                            <use xlink:href="#path-1"></use>
                                        </mask>
                                        <use id="Polygon" fill="#8B9BCC" xlink:href="#path-1"></use>
                                        <path d="M9.31640625,0 L13.3505285,6.97954963 L9.65001717,9.1136696 C9.44359337,9.23271616 9.31640625,9.45288848 9.31640625,9.69118004 L9.31640625,18.0351024 C9.31640625,18.2191974 9.46564467,18.3684358 9.64973958,18.3684358 C9.70819747,18.3684358 9.7656274,18.3530623 9.81626746,18.3238577 L17.3846507,13.9590993 L17.3846507,13.9590993 L17.3846507,4.65303309 L9.31640625,0 Z" id="Path-5" fill="#3B55A3" mask="url(#mask-2)"></path>
                                        <path d="M1.74885619,4.36427787 L8.9833505,0.192076408 C9.18947675,0.0732014442 9.44333575,0.0732014442 9.649462,0.192076408 L16.8839563,4.36427787 C17.0434314,4.45624867 17.0981545,4.66008586 17.0061837,4.81956096 C16.9768976,4.87034224 16.9347376,4.91250227 16.8839563,4.94178831 L9.649462,9.11398977 C9.44333575,9.23286473 9.18947675,9.23286473 8.9833505,9.11398977 L1.74885619,4.94178831 C1.58938109,4.8498175 1.53465804,4.64598032 1.62662884,4.48650521 C1.65591489,4.43572394 1.69807491,4.39356391 1.74885619,4.36427787 Z" id="Path-2" fill="#CED7F5" mask="url(#mask-2)"></path>
                                    </g>
                                    <g id="Group-Copy-2" transform="translate(0, 17.4489)">
                                        <mask id="mask-4" fill="white">
                                            <use xlink:href="#path-3"></use>
                                        </mask>
                                        <use id="Polygon" fill="#8B9BCC" xlink:href="#path-3"></use>
                                        <path d="M9.31640625,0 L13.3505285,6.97954963 L9.65001717,9.1136696 C9.44359337,9.23271616 9.31640625,9.45288848 9.31640625,9.69118004 L9.31640625,18.0351024 C9.31640625,18.2191974 9.46564467,18.3684358 9.64973958,18.3684358 C9.70819747,18.3684358 9.7656274,18.3530623 9.81626746,18.3238577 L17.3846507,13.9590993 L17.3846507,13.9590993 L17.3846507,4.65303309 L9.31640625,0 Z" id="Path-5" fill="#3B55A3" mask="url(#mask-4)"></path>
                                        <path d="M1.74885619,4.36427787 L8.9833505,0.192076408 C9.18947675,0.0732014442 9.44333575,0.0732014442 9.649462,0.192076408 L16.8839563,4.36427787 C17.0434314,4.45624867 17.0981545,4.66008586 17.0061837,4.81956096 C16.9768976,4.87034224 16.9347376,4.91250227 16.8839563,4.94178831 L9.649462,9.11398977 C9.44333575,9.23286473 9.18947675,9.23286473 8.9833505,9.11398977 L1.74885619,4.94178831 C1.58938109,4.8498175 1.53465804,4.64598032 1.62662884,4.48650521 C1.65591489,4.43572394 1.69807491,4.39356391 1.74885619,4.36427787 Z" id="Path-2" fill="#CED7F5" mask="url(#mask-4)"></path>
                                    </g>
                                    <g id="Group-Copy-3" transform="translate(10.5586, 0)">
                                        <mask id="mask-6" fill="white">
                                            <use xlink:href="#path-5"></use>
                                        </mask>
                                        <use id="Polygon" fill="#8B9BCC" xlink:href="#path-5"></use>
                                        <path d="M9.31640625,0 L13.3505285,6.97954963 L9.65001717,9.1136696 C9.44359337,9.23271616 9.31640625,9.45288848 9.31640625,9.69118004 L9.31640625,18.0351024 C9.31640625,18.2191974 9.46564467,18.3684358 9.64973958,18.3684358 C9.70819747,18.3684358 9.7656274,18.3530623 9.81626746,18.3238577 L17.3846507,13.9590993 L17.3846507,13.9590993 L17.3846507,4.65303309 L9.31640625,0 Z" id="Path-5" fill="#3B55A3" mask="url(#mask-6)"></path>
                                        <path d="M1.74885619,4.36427787 L8.9833505,0.192076408 C9.18947675,0.0732014442 9.44333575,0.0732014442 9.649462,0.192076408 L16.8839563,4.36427787 C17.0434314,4.45624867 17.0981545,4.66008586 17.0061837,4.81956096 C16.9768976,4.87034224 16.9347376,4.91250227 16.8839563,4.94178831 L9.649462,9.11398977 C9.44333575,9.23286473 9.18947675,9.23286473 8.9833505,9.11398977 L1.74885619,4.94178831 C1.58938109,4.8498175 1.53465804,4.64598032 1.62662884,4.48650521 C1.65591489,4.43572394 1.69807491,4.39356391 1.74885619,4.36427787 Z" id="Path-2" fill="#CED7F5" mask="url(#mask-6)"></path>
                                    </g>
                                </g>
                            </g>
                        </g>
                    </g>
                </g>
            </g>
        </g>
    </g>
</svg>