<?xml version="1.0" encoding="UTF-8"?>
<svg width="53px" height="50px" viewBox="0 0 53 50" version="1.1" xmlns="http://www.w3.org/2000/svg" xmlns:xlink="http://www.w3.org/1999/xlink">
    <title>Business components 业务组件/03-Chart display 图表展示/01-Topological graph 拓扑图/02-集群运行中备份 2</title>
    <defs>
        <path d="M14.8899405,0.192076408 L28.7554145,8.18842671 C28.9618383,8.30747327 29.0890254,8.52764559 29.0890254,8.76593715 L29.0890254,13.3917025 C29.0890254,13.6299941 28.9618383,13.8501664 28.7554145,13.9692129 L14.8899405,21.9655632 C14.6838143,22.0844382 14.4299553,22.0844382 14.223829,21.9655632 L0.358355042,13.9692129 C0.151931244,13.8501664 0.0247441236,13.6299941 0.0247441236,13.3917025 L0.0247441236,8.76593715 C0.0247441236,8.52764559 0.151931244,8.30747327 0.358355042,8.18842671 L14.223829,0.192076408 C14.4299553,0.0732014442 14.6838143,0.0732014442 14.8899405,0.192076408 Z" id="path-1"></path>
        <path d="M14.8899405,0.192076408 L28.7554145,8.18842671 C28.9618383,8.30747327 29.0890254,8.52764559 29.0890254,8.76593715 L29.0890254,13.3917025 C29.0890254,13.6299941 28.9618383,13.8501664 28.7554145,13.9692129 L14.8899405,21.9655632 C14.6838143,22.0844382 14.4299553,22.0844382 14.223829,21.9655632 L0.358355042,13.9692129 C0.151931244,13.8501664 0.0247441236,13.6299941 0.0247441236,13.3917025 L0.0247441236,8.76593715 C0.0247441236,8.52764559 0.151931244,8.30747327 0.358355042,8.18842671 L14.223829,0.192076408 C14.4299553,0.0732014442 14.6838143,0.0732014442 14.8899405,0.192076408 Z" id="path-3"></path>
        <path d="M14.8899405,0.192076408 L28.7554145,8.18842671 C28.9618383,8.30747327 29.0890254,8.52764559 29.0890254,8.76593715 L29.0890254,13.3917025 C29.0890254,13.6299941 28.9618383,13.8501664 28.7554145,13.9692129 L14.8899405,21.9655632 C14.6838143,22.0844382 14.4299553,22.0844382 14.223829,21.9655632 L0.358355042,13.9692129 C0.151931244,13.8501664 0.0247441236,13.6299941 0.0247441236,13.3917025 L0.0247441236,8.76593715 C0.0247441236,8.52764559 0.151931244,8.30747327 0.358355042,8.18842671 L14.223829,0.192076408 C14.4299553,0.0732014442 14.6838143,0.0732014442 14.8899405,0.192076408 Z" id="path-5"></path>
    </defs>
    <g id="页面-1" stroke="none" stroke-width="1" fill="none" fill-rule="evenodd">
        <g id="2.4.2-部署安装-预检查-确认信息-拓扑图" transform="translate(-706, -584)">
            <g id="编组" transform="translate(360, 314)">
                <g transform="translate(120, 212)" id="Business-components-业务组件/03-Chart-display-图表展示/01-Topological-graph-拓扑图/02-集群运行中备份-2">
                    <g transform="translate(226, 58)">
                        <g id="编组" transform="translate(0, 2.2059)">
                            <path d="M27.8335638,16.4870227 L50.1343235,29.3654913 L52.1737011,29.3658088 L52.1737011,31.0202206 L51.6673492,31.019909 C51.6676142,31.2466592 51.6099806,31.4765161 51.4884282,31.6870025 C51.3714287,31.8896049 51.2031786,32.057855 51.0005761,32.1748546 L27.8335638,45.5534185 C27.0083771,46.0299501 25.9916229,46.0299501 25.1664362,45.5534185 L1.99942386,32.1748546 C1.57213667,31.9281033 1.33309151,31.4805592 1.33265054,31.0202514 L0.826866482,31.0202206 L0.826866482,29.3658088 L2.86532345,29.3654913 L25.1664362,16.4870227 C25.9916229,16.0104911 27.0083771,16.0104911 27.8335638,16.4870227 Z" id="Combined-Shape" fill="#8BCCC1"></path>
                            <path d="M1.99942386,28.2111748 L25.1664362,14.8326109 C25.9916229,14.3560793 27.0083771,14.3560793 27.8335638,14.8326109 L51.0005761,28.2111748 C51.6382629,28.5794283 51.8566817,29.394904 51.4884282,30.0325907 C51.3714287,30.2351932 51.2031786,30.4034433 51.0005761,30.5204428 L27.8335638,43.8990067 C27.0083771,44.3755383 25.9916229,44.3755383 25.1664362,43.8990067 L1.99942386,30.5204428 C1.36173712,30.1521893 1.1433183,29.3367137 1.51157178,28.6990269 C1.62857132,28.4964245 1.79682142,28.3281744 1.99942386,28.2111748 Z" id="Path-2-Copy" fill="#E1FAF6"></path>
                            <g id="Z#/icon/集群" transform="translate(11.5477, 0)">
                                <g id="Group-2" transform="translate(0.3954, 0)">
                                    <g id="Group-Copy-3" transform="translate(0, 15.0497)">
                                        <mask id="mask-2" fill="white">
                                            <use xlink:href="#path-1"></use>
                                        </mask>
                                        <use id="Polygon" fill="#8BCCC1" xlink:href="#path-1"></use>
                                        <polygon id="Path-4" mask="url(#mask-2)" points="0.914444821 9.37049376 2.7309624 10.4180967 3.63922119 10.9418981 3.63922119 15.4654475 2.7309624 14.941646 0.914444821 13.8940431"></polygon>
                                        <polygon id="Path-4-Copy" mask="url(#mask-2)" points="3.63922119 10.9418981 5.45573877 11.989501 6.36399756 12.5133025 6.36399756 17.0368519 5.45573877 16.5130504 3.63922119 15.4654475"></polygon>
                                        <path d="M14.5568848,0 L21.8229551,12.5712349 L14.8904957,16.56925 C14.6840719,16.6882966 14.5568848,16.9084689 14.5568848,17.1467604 L14.5568848,21.5806097 C14.5568848,21.7647046 14.7061232,21.9139431 14.8902181,21.9139431 C14.948676,21.9139431 15.0061059,21.8985695 15.056746,21.8693649 L29.0890254,13.7768164 L29.0890254,13.7768164 L29.0890254,8.38082329 L14.5568848,0 Z" id="Path-5" fill="#3BA392" mask="url(#mask-2)"></path>
                                        <path d="M0.525438549,8.09206806 L14.223829,0.192076408 C14.4299553,0.0732014442 14.6838143,0.0732014442 14.8899405,0.192076408 L28.5887326,8.09229965 C28.7482077,8.18427046 28.8029307,8.38810764 28.7109599,8.54758275 C28.6817131,8.59829601 28.639626,8.64041232 28.5889331,8.66969436 L21.8346032,12.5712349 L21.8346032,12.5712349 L14.8898068,16.5699546 C14.6837413,16.6886043 14.4300789,16.6885164 14.2240956,16.5697239 L0.525438549,8.66957851 C0.365963443,8.5776077 0.311240396,8.37377052 0.403211201,8.21429541 C0.432497244,8.16351414 0.474657272,8.12135411 0.525438549,8.09206806 Z" id="Path-2" fill="#CEF5EE" mask="url(#mask-2)"></path>
                                    </g>
                                    <g id="Group-Copy-3" transform="translate(0, 7.5248)">
                                        <mask id="mask-4" fill="white">
                                            <use xlink:href="#path-3"></use>
                                        </mask>
                                        <use id="Polygon" fill="#8BCCC1" xlink:href="#path-3"></use>
                                        <path d="M8.0818416,15.0601453 L11.6795055,17.1365277 C12.0418977,17.3456814 12.2651543,17.7323053 12.2651543,18.150723 C12.2651543,18.3663174 12.0903805,18.5410912 11.8747862,18.5410912 C11.8062534,18.5410912 11.7389283,18.523049 11.6795795,18.4887787 L8.08176765,16.4112604 C7.71978198,16.2022357 7.49679565,15.8159822 7.49679565,15.397981 C7.49679565,15.1825542 7.67143366,15.0079161 7.88686055,15.0079161 C7.95531112,15.0079161 8.02255647,15.025929 8.0818416,15.0601453 Z" id="Path-9" fill="#2C7A6D" mask="url(#mask-4)"></path>
                                        <polygon id="Path-4" mask="url(#mask-4)" points="0.914444821 9.37049376 2.7309624 10.4180967 3.63922119 10.9418981 3.63922119 15.4654475 2.7309624 14.941646 0.914444821 13.8940431"></polygon>
                                        <polygon id="Path-4-Copy" mask="url(#mask-4)" points="3.63922119 10.9418981 5.45573877 11.989501 6.36399756 12.5133025 6.36399756 17.0368519 5.45573877 16.5130504 3.63922119 15.4654475"></polygon>
                                        <path d="M2.27714799,11.5330404 C2.71583606,11.7919591 2.98549403,12.2630055 2.98664018,12.7724021 L2.98695438,12.9120455 C2.98753464,13.1699351 2.7789442,13.3794663 2.5210546,13.3800466 C2.43709369,13.3802355 2.35463504,13.357783 2.28236042,13.3150531 C1.84427843,13.0560518 1.57479763,12.585645 1.57296552,12.0767303 L1.57246278,11.9370804 C1.57153385,11.679048 1.77995736,11.4691184 2.0379897,11.4681895 C2.12209302,11.4678867 2.20471862,11.4902917 2.27714799,11.5330404 Z" id="Path" fill="#2C7A6D" mask="url(#mask-4)"></path>
                                        <path d="M5.00192436,13.1044447 C5.44061243,13.3633635 5.7102704,13.8344099 5.71141656,14.3438064 L5.71173076,14.4834499 C5.71231101,14.7413395 5.50372057,14.9508707 5.24583097,14.9514509 C5.16187006,14.9516399 5.07941141,14.9291874 5.00713679,14.8864574 C4.5690548,14.6274562 4.299574,14.1570493 4.29774189,13.6481347 L4.29723915,13.5084847 C4.29631022,13.2504524 4.50473373,13.0405228 4.76276607,13.0395939 C4.84686939,13.0392911 4.92949499,13.0616961 5.00192436,13.1044447 Z" id="Path-Copy" fill="#2C7A6D" mask="url(#mask-4)"></path>
                                        <path d="M14.5568848,0 L21.8229551,12.5712349 L14.8904957,16.56925 C14.6840719,16.6882966 14.5568848,16.9084689 14.5568848,17.1467604 L14.5568848,21.5806097 C14.5568848,21.7647046 14.7061232,21.9139431 14.8902181,21.9139431 C14.948676,21.9139431 15.0061059,21.8985695 15.056746,21.8693649 L29.0890254,13.7768164 L29.0890254,13.7768164 L29.0890254,8.38082329 L14.5568848,0 Z" id="Path-5" fill="#3BA392" mask="url(#mask-4)"></path>
                                        <path d="M0.525438549,8.09206806 L14.223829,0.192076408 C14.4299553,0.0732014442 14.6838143,0.0732014442 14.8899405,0.192076408 L28.5887326,8.09229965 C28.7482077,8.18427046 28.8029307,8.38810764 28.7109599,8.54758275 C28.6817131,8.59829601 28.639626,8.64041232 28.5889331,8.66969436 L21.8346032,12.5712349 L21.8346032,12.5712349 L14.8898068,16.5699546 C14.6837413,16.6886043 14.4300789,16.6885164 14.2240956,16.5697239 L0.525438549,8.66957851 C0.365963443,8.5776077 0.311240396,8.37377052 0.403211201,8.21429541 C0.432497244,8.16351414 0.474657272,8.12135411 0.525438549,8.09206806 Z" id="Path-2" fill="#CEF5EE" mask="url(#mask-4)"></path>
                                    </g>
                                    <g id="Group-Copy-3">
                                        <mask id="mask-6" fill="white">
                                            <use xlink:href="#path-5"></use>
                                        </mask>
                                        <use id="Polygon" fill="#8BCCC1" xlink:href="#path-5"></use>
                                        <path d="M8.0818416,15.0601453 L11.6795055,17.1365277 C12.0418977,17.3456814 12.2651543,17.7323053 12.2651543,18.150723 C12.2651543,18.3663174 12.0903805,18.5410912 11.8747862,18.5410912 C11.8062534,18.5410912 11.7389283,18.523049 11.6795795,18.4887787 L8.08176765,16.4112604 C7.71978198,16.2022357 7.49679565,15.8159822 7.49679565,15.397981 C7.49679565,15.1825542 7.67143366,15.0079161 7.88686055,15.0079161 C7.95531112,15.0079161 8.02255647,15.025929 8.0818416,15.0601453 Z" id="Path-9" fill="#2C7A6D" mask="url(#mask-6)"></path>
                                        <polygon id="Path-4" mask="url(#mask-6)" points="0.914444821 9.37049376 2.7309624 10.4180967 3.63922119 10.9418981 3.63922119 15.4654475 2.7309624 14.941646 0.914444821 13.8940431"></polygon>
                                        <polygon id="Path-4-Copy" mask="url(#mask-6)" points="3.63922119 10.9418981 5.45573877 11.989501 6.36399756 12.5133025 6.36399756 17.0368519 5.45573877 16.5130504 3.63922119 15.4654475"></polygon>
                                        <path d="M2.27714799,11.5330404 C2.71583606,11.7919591 2.98549403,12.2630055 2.98664018,12.7724021 L2.98695438,12.9120455 C2.98753464,13.1699351 2.7789442,13.3794663 2.5210546,13.3800466 C2.43709369,13.3802355 2.35463504,13.357783 2.28236042,13.3150531 C1.84427843,13.0560518 1.57479763,12.585645 1.57296552,12.0767303 L1.57246278,11.9370804 C1.57153385,11.679048 1.77995736,11.4691184 2.0379897,11.4681895 C2.12209302,11.4678867 2.20471862,11.4902917 2.27714799,11.5330404 Z" id="Path" fill="#2C7A6D" mask="url(#mask-6)"></path>
                                        <path d="M5.00192436,13.1044447 C5.44061243,13.3633635 5.7102704,13.8344099 5.71141656,14.3438064 L5.71173076,14.4834499 C5.71231101,14.7413395 5.50372057,14.9508707 5.24583097,14.9514509 C5.16187006,14.9516399 5.07941141,14.9291874 5.00713679,14.8864574 C4.5690548,14.6274562 4.299574,14.1570493 4.29774189,13.6481347 L4.29723915,13.5084847 C4.29631022,13.2504524 4.50473373,13.0405228 4.76276607,13.0395939 C4.84686939,13.0392911 4.92949499,13.0616961 5.00192436,13.1044447 Z" id="Path-Copy" fill="#2C7A6D" mask="url(#mask-6)"></path>
                                        <path d="M14.5568848,0 L21.8229551,12.5712349 L14.8904957,16.56925 C14.6840719,16.6882966 14.5568848,16.9084689 14.5568848,17.1467604 L14.5568848,21.5806097 C14.5568848,21.7647046 14.7061232,21.9139431 14.8902181,21.9139431 C14.948676,21.9139431 15.0061059,21.8985695 15.056746,21.8693649 L29.0890254,13.7768164 L29.0890254,13.7768164 L29.0890254,8.38082329 L14.5568848,0 Z" id="Path-5" fill="#3BA392" mask="url(#mask-6)"></path>
                                        <path d="M0.525438549,8.09206806 L14.223829,0.192076408 C14.4299553,0.0732014442 14.6838143,0.0732014442 14.8899405,0.192076408 L28.5887326,8.09229965 C28.7482077,8.18427046 28.8029307,8.38810764 28.7109599,8.54758275 C28.6817131,8.59829601 28.639626,8.64041232 28.5889331,8.66969436 L21.8346032,12.5712349 L21.8346032,12.5712349 L14.8898068,16.5699546 C14.6837413,16.6886043 14.4300789,16.6885164 14.2240956,16.5697239 L0.525438549,8.66957851 C0.365963443,8.5776077 0.311240396,8.37377052 0.403211201,8.21429541 C0.432497244,8.16351414 0.474657272,8.12135411 0.525438549,8.09206806 Z" id="Path-2" fill="#CEF5EE" mask="url(#mask-6)"></path>
                                    </g>
                                </g>
                            </g>
                        </g>
                    </g>
                </g>
            </g>
        </g>
    </g>
</svg>