<svg xmlns="http://www.w3.org/2000/svg" viewBox="0 0 1024 1024"><g fill="none" fill-rule="evenodd" stroke="none" stroke-width="1"><path d="M0 0H1024V1024H0z"/><path fill="#006AFF" d="M448.697 138.543H164.28c-18.862 0-34.153 15.29-34.153 34.153v284.417c0 18.863 15.291 34.154 34.153 34.154h284.417c18.863 0 34.154-15.291 34.154-34.154V172.696c0-18.862-15.29-34.153-34.154-34.153M448.697 554.793H164.28c-18.862 0-34.153 15.29-34.153 34.154v284.416c0 18.863 15.291 34.154 34.153 34.154h284.417c18.863 0 34.154-15.291 34.154-34.154V588.947c0-18.863-15.29-34.154-34.154-34.154M864.164 554.793H579.747c-18.862 0-34.153 15.29-34.153 34.154v284.416c0 18.863 15.29 34.154 34.153 34.154h284.417c18.863 0 34.154-15.291 34.154-34.154V588.947c0-18.863-15.291-34.154-34.154-34.154"/><path fill="#0AC185" d="M730.934 96.483c-8.741 0-17.481 3.334-24.15 10.003L533.998 279.272c-13.337 13.338-13.337 34.962 0 48.3l172.786 172.786c6.669 6.67 15.409 10.003 24.15 10.003 8.74 0 17.48-3.334 24.15-10.003L927.87 327.572c13.337-13.338 13.337-34.962 0-48.3L755.084 106.486c-6.67-6.669-15.41-10.003-24.15-10.003"/></g></svg>