<?xml version="1.0" encoding="UTF-8"?>
<svg width="1280px" height="130px" viewBox="0 0 1280 130" version="1.1" xmlns="http://www.w3.org/2000/svg" xmlns:xlink="http://www.w3.org/1999/xlink">
    <title>编组</title>
    <defs>
        <rect id="path-1" x="112" y="0" width="1280" height="130"></rect>
        <radialGradient cx="106.571174%" cy="-14.0928681%" fx="106.571174%" fy="-14.0928681%" r="1616.5949%" gradientTransform="translate(1.0657, -0.1409), scale(0.0785, 1), rotate(174.6422), scale(1, 1.9444), translate(-1.0657, 0.1409)" id="radialGradient-3">
            <stop stop-color="#129AFF" offset="0%"></stop>
            <stop stop-color="#2062ED" offset="14.8574082%"></stop>
            <stop stop-color="#0B2C6E" offset="56.3035718%"></stop>
            <stop stop-color="#06132D" offset="100%"></stop>
        </radialGradient>
        <path d="M107.798582,5.48570658 L102.14518,60.2050104 C101.88318,62.7409103 99.7464355,64.6682682 97.1970371,64.6682682 L9.10408307,64.6682682 C6.53294688,64.6682682 4.38546653,62.7088934 4.15042911,60.1485225 L0.0211523978,15.166411 C-0.229991636,12.4305835 1.78424232,10.0091646 4.52006986,9.75802055 C4.67127297,9.74414038 4.8230323,9.73719037 4.97487116,9.73719234 L47.1759211,9.73774207 C50.1389356,9.73778067 52.727966,7.73638269 53.4743038,4.86890381 L53.7729496,3.72148672 C54.3434053,1.52975835 56.3222909,-4.4408921e-15 58.5870409,-8.8817842e-16 L102.850439,-8.8817842e-16 C105.59777,6.21724894e-15 107.824921,2.22715153 107.824921,4.97448217 C107.824921,5.14522941 107.81613,5.31586341 107.798582,5.48570658 Z" id="path-4"></path>
        <path d="M15.7744022,43.1597636 C6.31881831,43.064769 0.112922205,36.2170962 0.00126792231,27.7610217 C-0.00627430955,27.189815 0.0197565649,26.6125801 0.0813853734,26.0473784 C0.888722766,18.2728493 7.56928561,12.446462 15.3838185,12.3262063 C17.6702473,5.09282768 24.5973254,0 32.4858129,0 L32.4919758,0 C37.2743713,0 41.7671115,1.81586064 45.1443702,5.11086604 C48.2874394,8.17738566 50.117815,12.1758867 50.3643303,16.4690142 C57.4393175,16.9801008 63.0660277,22.752373 63.1095537,29.7753042 C63.1153308,36.7741843 57.6488554,42.4923415 50.7032887,43.0936199 C50.3027015,43.1296966 33.1788939,43.1597636 15.7744022,43.1597636 Z" id="path-6"></path>
    </defs>
    <g id="OMS-部署&amp;升级" stroke="none" stroke-width="1" fill="none" fill-rule="evenodd">
        <g id="1.1-选择部署产品" transform="translate(0, -48)">
            <g id="编组" transform="translate(-112, 48)">
                <mask id="mask-2" fill="white">
                    <use xlink:href="#path-1"></use>
                </mask>
                <use id="矩形-2" fill="#D8D8D8" xlink:href="#path-1"></use>
                <rect id="背景" fill="url(#radialGradient-3)" mask="url(#mask-2)" x="0" y="0" width="1657" height="130"></rect>
                <g mask="url(#mask-2)">
                    <g transform="translate(1105, 16)">
                        <g id="编组" transform="translate(-0, -0)">
                            <g id="表格" transform="translate(111.6413, 37.5514) rotate(-330) translate(-111.6413, -37.5514)translate(83.8174, 16.7175)">
                                <rect id="矩形备份-28" stroke="#24D565" stroke-width="1.24362054" fill="#FFFFFF" x="0.621810271" y="1.29387341" width="54.4042545" height="39.752231" rx="2.48724103"></rect>
                                <path d="M2.48724109,0 L53.1606339,4.4408921e-16 C54.5342993,0 55.647875,1.11357576 55.647875,2.48724109 L55.647875,8.06475769 L55.647875,8.06475769 L9.09494702e-13,8.06475769 L9.09050613e-13,2.48724109 C9.09050613e-13,1.11357576 1.11357576,-4.4408921e-16 2.48724109,-4.4408921e-16 Z" id="矩形备份-29" fill="#24D565"></path>
                                <line x1="0.956282443" y1="34.0336243" x2="54.6915926" y2="34.0336243" id="路径-4备份-2" stroke="#EBEDF0" stroke-width="1.24362054"></line>
                                <line x1="0.956282443" y1="24.6247403" x2="54.6915926" y2="24.6247403" id="路径-4备份" stroke="#E0ECF7" stroke-width="1.24362054"></line>
                                <line x1="0.956282443" y1="15.2158563" x2="54.6915926" y2="15.2158563" id="路径-4" stroke="#E0ECF7" stroke-width="1.24362054"></line>
                                <line x1="44.7003612" y1="8.06475769" x2="44.794571" y2="40.6475982" id="路径-4备份-7" stroke="#E0ECF7" stroke-width="1.24362054"></line>
                                <line x1="33.2083938" y1="8.06475769" x2="33.3026036" y2="40.6475982" id="路径-4备份-6" stroke="#E0ECF7" stroke-width="1.24362054"></line>
                                <line x1="21.7164264" y1="8.06475769" x2="21.8106362" y2="40.6475982" id="路径-4备份-5" stroke="#EBEDF0" stroke-width="1.24362054"></line>
                                <line x1="10.224459" y1="8.06475769" x2="10.3186688" y2="40.6475982" id="路径-4备份-4" stroke="#EBEDF0" stroke-width="1.24362054"></line>
                            </g>
                            <g id="编组-16" transform="translate(39.5471, 37.2815) rotate(-30) translate(-39.5471, -37.2815)translate(8.331, 12.2552)">
                                <rect id="矩形" stroke="#001D5D" stroke-width="1.24362054" fill="#FFFFFF" x="0.621810271" y="0.621810271" width="61.1885441" height="48.8090144" rx="2.48724103"></rect>
                                <rect id="矩形" fill="#E0ECF7" x="7.34783711" y="8.27343228" width="47.7364904" height="27.0985603" rx="1.24362051"></rect>
                                <rect id="矩形备份-16" fill="#E0ECF7" x="7.34783711" y="38.89235" width="33.8133474" height="7.9701648" rx="2.48724103"></rect>
                                <path d="M28.2219137,18.5395165 L33.2496211,23.5672239 C33.7352852,24.0528879 33.7352852,24.8403049 33.2496211,25.3259689 C33.0627043,25.5128857 32.8210907,25.6353812 32.5598403,25.6756803 L26.5916222,26.5963046 C25.9128179,26.7010132 25.2776553,26.2356167 25.1729467,25.5568125 C25.1533249,25.4296086 25.1535688,25.3001296 25.1736696,25.1730005 L26.1141802,19.2246687 C26.2214451,18.5462637 26.8583564,18.0832632 27.5367614,18.1905281 C27.7962767,18.2315609 28.036129,18.3537318 28.2219137,18.5395165 Z" id="矩形" fill="#D0E0EE" transform="translate(29.9458, 21.8346) rotate(-135) translate(-29.9458, -21.8346)"></path>
                            </g>
                            <g id="编组-19" transform="translate(48.856, 6.1528)">
                                <rect id="矩形" fill="#E7F2FB" style="mix-blend-mode: multiply;" x="3.97487041" y="3.98256893" width="56.9625362" height="55.7112171" rx="4.97448206"></rect>
                                <rect id="矩形" stroke="#001D5D" stroke-width="1.24362054" fill="#FFFFFF" x="0.621810271" y="0.621810271" width="55.7189156" height="54.4675966" rx="2.48724103"></rect>
                                <polyline id="路径" stroke="#E0ECF7" stroke-width="3.73086163" stroke-linecap="round" stroke-linejoin="round" points="19.0285653 34.9463201 11.9798989 27.8840018 19.0285653 20.8216835"></polyline>
                                <polyline id="路径备份" stroke="#E0ECF7" stroke-width="3.73086163" stroke-linecap="round" stroke-linejoin="round" transform="translate(41.4583, 27.884) scale(-1, 1) translate(-41.4583, -27.884)" points="44.9826373 34.9463201 37.9339708 27.8840018 44.9826373 20.8216835"></polyline>
                                <line x1="24.9569349" y1="34.0001489" x2="32.0056013" y2="21.7678547" id="路径-11" stroke="#E0ECF7" stroke-width="3.73086163" stroke-linecap="round" stroke-linejoin="round"></line>
                                <path d="M51.988054,0 C54.7353846,-8.8817842e-16 56.9625362,2.22715153 56.9625362,4.97448217 L56.9625362,8.54682904 L0,8.54682904 L0,4.97448217 C0,2.22715153 2.22715153,0 4.97448217,0 L51.988054,0 Z M5.50312665,3.03190759 C4.81878674,3.03190759 4.26401962,3.58774918 4.26401962,4.27341452 C4.26401962,4.95907986 4.81878674,5.51492145 5.50312665,5.51492145 C6.18746656,5.51492145 6.74223367,4.95907986 6.74223367,4.27341452 C6.74223367,3.58774918 6.18746656,3.03190759 5.50312665,3.03190759 Z M9.88412587,3.03190759 C9.19978596,3.03190759 8.64501885,3.58774918 8.64501885,4.27341452 C8.64501885,4.95907986 9.19978596,5.51492145 9.88412587,5.51492145 C10.5684658,5.51492145 11.1232329,4.95907986 11.1232329,4.27341452 C11.1232329,3.58774918 10.5684658,3.03190759 9.88412587,3.03190759 Z M14.2651251,3.03190759 C13.5807852,3.03190759 13.0260181,3.58774918 13.0260181,4.27341452 C13.0260181,4.95907986 13.5807852,5.51492145 14.2651251,5.51492145 C14.949465,5.51492145 15.5042321,4.95907986 15.5042321,4.27341452 C15.5042321,3.58774918 14.949465,3.03190759 14.2651251,3.03190759 Z" id="形状结合" fill="#001D5D"></path>
                            </g>
                            <g id="编组-18" transform="translate(54.5911, 63.5312) rotate(-15) translate(-54.5911, -63.5312)translate(38.0681, 45.9476)">
                                <rect id="矩形" fill="#E7F2FB" style="mix-blend-mode: multiply;" x="2.81289967" y="4.88070923" width="30.2331106" height="30.2866263" rx="15.1165553"></rect>
                                <rect id="矩形" fill="#24D565" x="9.09494702e-13" y="-2.27373675e-13" width="30.2331106" height="30.2866263" rx="15.1165553"></rect>
                                <rect id="矩形备份" fill="#FFFFFF" x="7.95608173" y="7.9701648" width="14.3209471" height="14.3462966" rx="7.16047356"></rect>
                            </g>
                            <g id="编组-13" transform="translate(20.4263, 49.6795)">
                                <g id="椭圆形" transform="translate(-0, 0)">
                                    <mask id="mask-5" fill="white">
                                        <use xlink:href="#path-4"></use>
                                    </mask>
                                    <use id="蒙版" fill="#001D5D" xlink:href="#path-4"></use>
                                    <ellipse fill="#217EFF" mask="url(#mask-5)" cx="109.267349" cy="70.6393866" rx="85.1686617" ry="47.6894002"></ellipse>
                                    <ellipse fill="#24D565" mask="url(#mask-5)" cx="120.389765" cy="69.056336" rx="63.9538874" ry="35.8103847"></ellipse>
                                </g>
                                <path d="M9.48171034,20.2060822 L42.2695676,20.2060822 C42.8821589,20.2060822 43.4035107,20.6521857 43.4982317,21.2574097 L43.8249193,23.3447932 C43.9311198,24.0233657 43.4671207,24.6595498 42.7885483,24.7657503 C42.7249344,24.7757063 42.6606434,24.7807068 42.5962552,24.7807068 L9.69382519,24.7807068 C9.05567558,24.7807068 8.52109122,24.2976926 8.45657624,23.6628125 L8.24446139,21.575429 C8.1750247,20.8921152 8.67267037,20.2818905 9.3559841,20.2124538 C9.39775841,20.2082088 9.4397209,20.2060822 9.48171034,20.2060822 Z" id="矩形" fill="#FFFFFF"></path>
                            </g>
                        </g>
                        <g id="编组-10" transform="translate(103.8904, 70.6546)">
                            <mask id="mask-7" fill="white">
                                <use xlink:href="#path-6"></use>
                            </mask>
                            <path stroke="#001D5D" stroke-width="1.31478237" d="M32.4858129,0.657391185 C37.1003109,0.657391185 41.4305121,2.40589912 44.6852898,5.5814065 C47.7086042,8.53108796 49.4708738,12.3767341 49.7080202,16.5067001 C49.7193101,16.7033172 49.7270924,16.8996897 49.7315654,17.0952479 C49.9260827,17.1007687 50.1212521,17.1105588 50.3169647,17.1246968 C53.6994069,17.3690394 56.7346422,18.8752467 58.9243537,21.1613531 C61.0925406,23.4249873 62.431567,26.4542454 62.4521628,29.7758469 C62.4548929,33.0833985 61.1709407,36.0896081 59.0683842,38.3467347 C56.9389722,40.6326911 53.9705221,42.1509252 50.644323,42.4388785 C50.364044,42.4641203 41.8748988,42.4841771 30.8394852,42.4950022 L29.9268476,42.4958711 C29.6208015,42.4961537 29.3129605,42.4964293 29.0034412,42.4966979 L28.0293069,42.4975096 C27.5396487,42.497901 27.0461864,42.4982705 26.5493968,42.4986175 L25.0492695,42.4995903 L24.5452251,42.4998839 L23.5316657,42.5004241 L23.0224022,42.5006705 L20.9706766,42.5014945 L20.4547076,42.5016593 L15.7810063,42.5024056 C11.3493953,42.4578838 7.65673313,40.8755954 5.03058124,38.3117781 C2.28762127,35.6339252 0.713270619,31.892654 0.658601808,27.7523423 C0.651411444,27.2077841 0.676149082,26.6574735 0.735260463,26.1152794 C1.11913845,22.4185962 2.89232327,19.1831696 5.49541316,16.8490673 C8.13473688,14.4824754 11.6269776,13.0414883 15.3939338,12.9835197 C17.1158769,9.02779952 19.3489124,6.05199951 22.258499,3.95492453 C25.1464348,1.87345423 28.7013592,0.657391185 32.4858129,0.657391185 Z"></path>
                            <path d="M34.9400422,25.9876652 L36.3032219,25.9884634 C37.0293561,25.9884634 37.6180043,26.5771116 37.6180043,27.3032458 C37.6180043,27.6043794 37.5146332,27.8963872 37.3251727,28.1304515 L33.362632,33.0258742 C32.9057789,33.590282 32.0778833,33.6774724 31.5134755,33.2206193 C31.4419217,33.162701 31.3766487,33.0974279 31.3187304,33.0258742 L27.3561897,28.1304515 C26.8993366,27.5660437 26.9865269,26.7381481 27.5509348,26.281295 C27.7849991,26.0918345 28.0770069,25.9884634 28.3781405,25.9884634 L29.7410284,25.9881138 L29.741019,18.2634476 C29.741019,17.5373133 30.3296671,16.9486652 31.0558013,16.9486652 L33.625561,16.9486652 C34.3516953,16.9486652 34.9403434,17.5373133 34.9403434,18.2634476 L34.9400422,25.9876652 Z" id="形状结合" fill="#217EFF" mask="url(#mask-7)"></path>
                        </g>
                    </g>
                </g>
            </g>
        </g>
    </g>
</svg>