<?xml version="1.0" encoding="UTF-8"?>
<svg width="100px" height="100px" viewBox="0 0 100 100" version="1.1" xmlns="http://www.w3.org/2000/svg" xmlns:xlink="http://www.w3.org/1999/xlink">
    <title>编组 5</title>
    <defs>
        <circle id="path-1" cx="50" cy="50" r="50"></circle>
    </defs>
    <g id="页面-1" stroke="none" stroke-width="1" fill="none" fill-rule="evenodd">
        <g id="2.2-OCP-OCP部署向导备份" transform="translate(-844.000000, -392.000000)">
            <g id="编组-5" transform="translate(844.000000, 392.000000)">
                <mask id="mask-2" fill="white">
                    <use xlink:href="#path-1"></use>
                </mask>
                <use id="椭圆形备份" fill="#F5F8FE" xlink:href="#path-1"></use>
                <g id="api-filledd" mask="url(#mask-2)" fill-rule="nonzero">
                    <rect id="矩形" fill="#000000" opacity="0" x="0" y="0" width="100" height="100"></rect>
                    <path d="M89.6191406,14.53125 L85.4785156,10.390625 C85.3222656,10.234375 85.1269531,10.1660156 84.921875,10.1660156 C84.7167969,10.1660156 84.5214844,10.2441406 84.3652344,10.390625 L76.9335937,17.8222656 C73.6425781,15.5859375 69.8144531,14.4726562 65.9863281,14.4726562 C60.9863281,14.4726562 55.9863281,16.3769531 52.1679687,20.1953125 L42.2167969,30.1464844 C41.9140625,30.4492187 41.9140625,30.9472656 42.2167969,31.25 L68.75,57.7832031 C68.90625,57.9394531 69.1015625,58.0078125 69.3066406,58.0078125 C69.5019531,58.0078125 69.7070312,57.9296875 69.8632812,57.7832031 L79.8144531,47.8320312 C86.5429687,41.09375 87.3339844,30.6738281 82.1875,23.0761719 L89.6191406,15.6445313 C89.921875,15.3320313 89.921875,14.8339844 89.6191406,14.53125 Z M56.5332031,53.3886719 C56.2304687,53.0859375 55.7324219,53.0859375 55.4296875,53.3886719 L48.9257812,59.8925781 L40.1074219,51.0742188 L46.6210937,44.5605469 C46.9238281,44.2578125 46.9238281,43.7597656 46.6210937,43.4570313 L43.0664062,39.9023438 C42.7636719,39.5996094 42.265625,39.5996094 41.9628906,39.9023438 L35.4492187,46.4160156 L31.25,42.2167969 C31.09375,42.0605469 30.8984375,41.9921875 30.6933594,41.9921875 C30.4980469,41.9921875 30.2929687,42.0703125 30.1367187,42.2167969 L20.1953125,52.1679688 C13.4667969,58.8964844 12.6757812,69.3261719 17.8222656,76.9238281 L10.390625,84.3554688 C10.0878906,84.6582031 10.0878906,85.15625 10.390625,85.4589844 L14.53125,89.5996094 C14.6875,89.7558594 14.8828125,89.8242188 15.0878906,89.8242188 C15.2929687,89.8242188 15.4882812,89.7460938 15.6445312,89.5996094 L23.0761719,82.1679688 C26.3671875,84.4042969 30.1953125,85.5175781 34.0234375,85.5175781 C39.0234375,85.5175781 44.0234375,83.6132813 47.8417969,79.7949219 L57.7929687,69.84375 C58.0957031,69.5410156 58.0957031,69.0429688 57.7929687,68.7402344 L53.59375,64.5410156 L60.1074219,58.0273438 C60.4101562,57.7246094 60.4101562,57.2265625 60.1074219,56.9238281 L56.5332031,53.3886719 L56.5332031,53.3886719 Z" id="形状" fill="#B3CCFF"></path>
                </g>
            </g>
        </g>
    </g>
</svg>