<?xml version="1.0" encoding="UTF-8"?>
<svg width="1280px" height="130px" viewBox="0 0 1280 130" version="1.1" xmlns="http://www.w3.org/2000/svg" xmlns:xlink="http://www.w3.org/1999/xlink">
    <title>编组</title>
    <defs>
        <rect id="path-1" x="111" y="1" width="1280" height="130"></rect>
        <radialGradient cx="106.571174%" cy="-14.0928681%" fx="106.571174%" fy="-14.0928681%" r="1616.5949%" gradientTransform="translate(1.0657, -0.1409), scale(0.0785, 1), rotate(174.6422), scale(1, 1.9758), translate(-1.0657, 0.1409)" id="radialGradient-3">
            <stop stop-color="#129AFF" offset="0%"></stop>
            <stop stop-color="#2062ED" offset="14.8574082%"></stop>
            <stop stop-color="#0B2C6E" offset="56.3035718%"></stop>
            <stop stop-color="#06132D" offset="100%"></stop>
        </radialGradient>
    </defs>
    <g id="OMS-部署&amp;升级" stroke="none" stroke-width="1" fill="none" fill-rule="evenodd">
        <g id="2.1-选择升级产品" transform="translate(0, -48)">
            <g id="编组" transform="translate(-111, 47)">
                <mask id="mask-2" fill="white">
                    <use xlink:href="#path-1"></use>
                </mask>
                <use id="矩形-2" fill="#D8D8D8" xlink:href="#path-1"></use>
                <rect id="背景" fill="url(#radialGradient-3)" mask="url(#mask-2)" x="0" y="1" width="1657" height="130"></rect>
                <g mask="url(#mask-2)">
                    <g transform="translate(1076, 16)">
                        <g id="编组-45" stroke="none" stroke-width="1" fill-rule="evenodd" transform="translate(53, 14)">
                            <polygon id="矩形" fill="#24D565" points="58.1705426 85.491738 76.0893393 85.491738 76.0893393 95.3599054 58.1705426 95.3599054"></polygon>
                            <rect id="矩形" fill="#001D5D" x="0" y="0" width="134" height="87.5799861" rx="1.95933926"></rect>
                            <rect id="矩形" fill="#217EFF" x="6.23255814" y="6.25549302" width="121.534884" height="75.2447768" rx="0.979669631"></rect>
                            <g id="编组-90" transform="translate(30.0584, 27.4492)" fill="#FFFFFF" fill-rule="nonzero">
                                <path d="M16.3928721,0.693788404 L19.8544226,4.17101248 C20.1485663,4.46643463 20.1711928,4.93132923 19.9223246,5.25284686 L19.8543937,5.33005819 L19.8543937,5.33005819 L9.46980015,15.7606293 C9.1511573,16.0806829 9.15113146,16.5996184 9.46974245,16.919704 L19.8544514,27.3524774 C20.1730223,27.6725807 20.1730094,28.1914937 19.8544226,28.511581 L16.3928721,31.9888051 C16.0742452,32.3088747 15.5576489,32.3088747 15.239022,31.9888051 L0.238970188,16.9208341 C-0.0796567294,16.6007645 -0.0796567294,16.081829 0.238970188,15.7617594 L15.239022,0.693788404 C15.5576489,0.373718766 16.0742452,0.373718766 16.3928721,0.693788404 Z M57.5417084,0.261840571 L54.1704476,3.64836623 C53.8279847,3.99237971 53.8279986,4.54849719 54.1704787,4.89249355 L64.4703986,15.2380161 C64.8128665,15.5820003 64.8128943,16.1380938 64.4704608,16.4821122 L54.1703545,26.8298913 C53.8279332,27.1738975 53.8279471,27.7299671 54.1703856,28.0739562 L57.5417084,31.460544 C57.885256,31.8056472 58.4435178,31.8069083 58.788621,31.4633606 C58.789562,31.4624239 58.7905009,31.461485 58.7914376,31.460544 L73.7012308,16.4832403 C74.0436815,16.139239 74.0436815,15.5831455 73.7012308,15.2391443 L58.7914376,0.261840571 C58.44789,-0.0832626329 57.8896282,-0.0845236634 57.544525,0.259023981 C57.543584,0.259960723 57.5426451,0.260899588 57.5417084,0.261840571 Z M41.2888152,3.47427261 L45.4160676,5.86793235 C45.8361369,6.11155765 45.9801385,6.64898354 45.7381585,7.07000285 L33.562558,28.25425 C33.319907,28.6764368 32.7809495,28.8219794 32.3587627,28.5793284 C32.3577658,28.5787554 32.35677,28.5781805 32.3557753,28.5776036 L28.2285229,26.1839438 C27.8084535,25.9403185 27.664452,25.4028927 27.9064319,24.9818733 L40.0820324,3.79762622 C40.3246834,3.37543939 40.8636409,3.22989683 41.2858277,3.4725478 C41.2868247,3.47312079 41.2878205,3.47369572 41.2888152,3.47427261 Z" id="形状结合"></path>
                            </g>
                            <rect id="矩形" fill="#001D5D" x="46.6785792" y="93.8323953" width="41.8105256" height="6.16760466" rx="0.979669631"></rect>
                        </g>
                        <g id="编组" stroke="none" stroke-width="1" fill-rule="evenodd" transform="translate(167.1863, -6)">
                            <ellipse id="椭圆形" fill="#E0ECF7" style="mix-blend-mode: multiply;" cx="20.5889907" cy="21.5068593" rx="19.3597973" ry="19.3010276"></ellipse>
                            <ellipse id="椭圆形" fill="#24D565" cx="19.1754182" cy="19.1172083" rx="19.1754182" ry="19.1172083"></ellipse>
                            <path d="M24.5618785,14.3769142 L19.7689743,9.42615319 C19.58811,9.24107801 19.2942055,9.24107801 19.1359492,9.42615319 L14.343045,14.3769142 C14.2073967,14.5157206 14.2978289,14.7701989 14.5013012,14.7701989 L16.3551604,14.7701989 L16.3551604,30.732933 L22.527155,30.732933 L22.527155,14.7701989 L24.3810142,14.7701989 C24.5844865,14.7701989 24.6749187,14.5157206 24.5392705,14.3769142 L24.5618785,14.3769142 Z" id="路径" fill="#FFFFFF"></path>
                        </g>
                        <path d="M53.6917853,30.8110353 L32.9661575,30.8110353 C32.008992,30.8110353 31.233056,31.5869713 31.233056,32.5441368 L31.233056,62.8110353 L31.233056,62.8110353" id="路径-38备份" stroke="#001D5D" stroke-width="1.29982617" stroke-dasharray="3.466203115545932,3.466203115545932"></path>
                        <g id="编组-95备份" stroke="none" stroke-width="1" fill-rule="evenodd" transform="translate(11, 63)">
                            <path d="M4.39534884,30.4728037 L63,30.4728037 L63,49.5302134 C63,50.3419541 62.3419541,51 61.5302134,51 L5.86513542,51 C5.0533947,51 4.39534884,50.3419541 4.39534884,49.5302134 L4.39534884,30.4728037 L4.39534884,30.4728037 Z" id="矩形" fill="#E0ECF7"></path>
                            <rect id="矩形备份" stroke="#001D5D" stroke-width="0.734893291" fill="#FFFFFF" x="0.367446645" y="0.367446645" width="57.8697579" height="46.5694545" rx="1.46978652"></rect>
                            <line x1="0.738581993" y1="38.038431" x2="57.8696663" y2="38.038431" id="路径-4备份-2" stroke="#EBEDF0" stroke-width="0.734893291"></line>
                            <line x1="0.738581993" y1="27.8199527" x2="57.8696663" y2="27.8199527" id="路径-4备份" stroke="#EBEDF0" stroke-width="0.734893291"></line>
                            <line x1="0.738581993" y1="17.6014745" x2="57.8696663" y2="17.6014745" id="路径-4" stroke="#EBEDF0" stroke-width="0.734893291"></line>
                            <line x1="47.7994186" y1="9.60869565" x2="47.9023548" y2="46.5629473" id="路径-4备份-7" stroke="#EBEDF0" stroke-width="0.734893291"></line>
                            <line x1="35.3459302" y1="9.60869565" x2="35.4488664" y2="46.5629473" id="路径-4备份-6" stroke="#EBEDF0" stroke-width="0.734893291"></line>
                            <line x1="22.8924419" y1="9.60869565" x2="22.995378" y2="46.5629473" id="路径-4备份-5" stroke="#EBEDF0" stroke-width="0.734893291"></line>
                            <line x1="10.4389535" y1="9.60869565" x2="10.5418896" y2="46.5629473" id="路径-4备份-4" stroke="#EBEDF0" stroke-width="0.734893291"></line>
                            <path d="M57.1348646,0.367446645 C57.4392673,0.367446645 57.7148523,0.490830246 57.9143366,0.690314538 C58.1138209,0.88979883 58.2372045,1.16538381 58.2372045,1.46978658 L58.2372045,9.24124901 L0.367446645,9.24124901 L0.367446645,1.46978658 C0.367446645,1.16538381 0.490830246,0.88979883 0.690314538,0.690314538 C0.88979883,0.490830246 1.16538381,0.367446645 1.46978658,0.367446645 Z" id="矩形" stroke="#001D5D" stroke-width="0.734893291" fill="#001D5D"></path>
                            <path d="M33.509414,26.281317 C33.7623897,25.9239736 33.6611994,25.4645321 33.3070335,25.2092869 C33.2058432,25.1071887 33.0540578,25.0561397 32.9022725,25.0561397 L28.90124,25.0561397 L28.90124,16.8024057 C28.90124,16.3940133 28.5470741,16.0366699 28.142313,16.0366699 C27.8893374,16.0366699 27.6363617,16.1898171 27.5351715,16.3940133 L22.2692607,27.9659358 C22.0162851,28.3232792 22.1174753,28.7827207 22.4716413,29.037966 C22.5728315,29.1400641 22.7246169,29.1911131 22.8764023,29.1911131 L26.8774348,29.1911131 L26.8774348,37.4448471 C26.8774348,37.8532395 27.2316007,38.2105829 27.6363617,38.2105829 C27.8893374,38.2105829 28.142313,38.0574358 28.2435033,37.8532395 L33.509414,26.281317 Z" id="路径" fill="#FFBD15" fill-rule="nonzero"></path>
                        </g>
                    </g>
                </g>
            </g>
        </g>
    </g>
</svg>