<?xml version="1.0" encoding="UTF-8"?>
<svg width="43px" height="30px" viewBox="0 0 43 30" version="1.1" xmlns="http://www.w3.org/2000/svg" xmlns:xlink="http://www.w3.org/1999/xlink">
    <title>形状结合</title>
    <g id="白屏升级" stroke="none" stroke-width="1" fill="none" fill-rule="evenodd">
        <g id="1.3-预检查-确认配置" transform="translate(-618.000000, -337.000000)" fill="#E2E8F3">
            <path d="M645.419412,331 C645.971697,331 646.419412,331.447715 646.419412,332 L646.419,353.499 L653.838787,353.5 C654.391072,353.5 654.838787,353.947715 654.838787,354.5 C654.838787,354.727071 654.761506,354.947382 654.619656,355.124695 L640.700281,372.523914 C640.355271,372.955176 639.725979,373.025097 639.294717,372.680088 C639.237052,372.633956 639.184675,372.581579 639.138543,372.523914 L625.219168,355.124695 C624.874158,354.693433 624.94408,354.064141 625.375342,353.719131 C625.552655,353.577281 625.772965,353.5 626.000037,353.5 L633.419,353.499 L633.419412,332 C633.419412,331.447715 633.867127,331 634.419412,331 L645.419412,331 Z" id="形状结合" transform="translate(639.919394, 351.949628) scale(1, -1) rotate(-90.000000) translate(-639.919394, -351.949628) "></path>
        </g>
    </g>
</svg>